<svg width="24" height="24" viewBox="0 0 24 24" fill="none" xmlns="http://www.w3.org/2000/svg">
<path d="M8.25 3C5.35051 3 3 5.3505 3 8.25V18.75C3 19.9926 4.00736 21 5.25 21H11V19.5H5.25C4.83579 19.5 4.5 19.1642 4.5 18.75V8.25C4.5 6.17893 6.17893 4.5 8.25 4.5H15.75C17.8211 4.5 19.5 6.17893 19.5 8.25V11H21V8.25C21 5.35051 18.6495 3 15.75 3H8.25Z" fill="#111827"/>
<path d="M11.4154 16.9169C11.2874 16.8152 11.1254 16.7545 10.9492 16.7545C10.535 16.7545 10.1992 17.0902 10.1992 17.5045C10.1992 17.9187 10.535 18.2545 10.9492 18.2545C10.9663 18.2545 10.9832 18.2539 11 18.2528V18.1875C11 17.6985 11.1569 17.2671 11.4154 16.9169Z" fill="#111827"/>
<path d="M6.75 16.7545C7.16421 16.7545 7.5 17.0902 7.5 17.5045C7.5 17.9187 7.16421 18.2545 6.75 18.2545C6.33579 18.2545 6 17.9187 6 17.5045C6 17.0902 6.33579 16.7545 6.75 16.7545Z" fill="#111827"/>
<path d="M9.59961 17.5045C9.59961 17.0902 9.26382 16.7545 8.84961 16.7545C8.4354 16.7545 8.09961 17.0902 8.09961 17.5045C8.09961 17.9187 8.4354 18.2545 8.84961 18.2545C9.26382 18.2545 9.59961 17.9187 9.59961 17.5045Z" fill="#111827"/>
<path d="M12.66 12C12.2955 12 12 12.3358 12 12.75C12 13.1642 12.2955 13.5 12.66 13.5H22.34C22.7045 13.5 23 13.1642 23 12.75C23 12.3358 22.7045 12 22.34 12H12.66Z" fill="url(#paint0_linear_7230_56960)"/>
<path d="M12 15.225C12 14.8108 12.2955 14.475 12.66 14.475H22.34C22.7045 14.475 23 14.8108 23 15.225C23 15.6392 22.7045 15.975 22.34 15.975H12.66C12.2955 15.975 12 15.6392 12 15.225Z" fill="url(#paint1_linear_7230_56960)"/>
<path d="M12 21.7625V18.1875C12 17.504 12.6156 16.95 13.375 16.95H17.0417L17.0417 23H13.375C12.6156 23 12 22.4459 12 21.7625Z" fill="url(#paint2_linear_7230_56960)"/>
<path d="M17.9583 23H21.625C22.3844 23 23 22.4459 23 21.7625V18.1875C23 17.504 22.3844 16.95 21.625 16.95H17.9583L17.9583 23Z" fill="url(#paint3_linear_7230_56960)"/>
<defs>
<linearGradient id="paint0_linear_7230_56960" x1="12" y1="12" x2="24.3568" y2="13.8279" gradientUnits="userSpaceOnUse">
<stop stop-color="#3499FF"/>
<stop offset="1" stop-color="#3A3985"/>
</linearGradient>
<linearGradient id="paint1_linear_7230_56960" x1="12" y1="12" x2="24.3568" y2="13.8279" gradientUnits="userSpaceOnUse">
<stop stop-color="#3499FF"/>
<stop offset="1" stop-color="#3A3985"/>
</linearGradient>
<linearGradient id="paint2_linear_7230_56960" x1="12" y1="12" x2="24.3568" y2="13.8279" gradientUnits="userSpaceOnUse">
<stop stop-color="#3499FF"/>
<stop offset="1" stop-color="#3A3985"/>
</linearGradient>
<linearGradient id="paint3_linear_7230_56960" x1="12" y1="12" x2="24.3568" y2="13.8279" gradientUnits="userSpaceOnUse">
<stop stop-color="#3499FF"/>
<stop offset="1" stop-color="#3A3985"/>
</linearGradient>
</defs>
</svg>
