<svg width="24" height="24" viewBox="0 0 24 24" fill="none" xmlns="http://www.w3.org/2000/svg">
<path fill-rule="evenodd" clip-rule="evenodd" d="M12.5303 2.21967C12.2374 1.92678 11.7626 1.92678 11.4697 2.21967C11.0666 2.62274 9.47144 4.34735 7.97108 6.58192C6.49158 8.78544 5 11.6349 5 14.25C5 16.7736 5.7464 18.7287 7.04444 20.0557C8.34122 21.3814 10.1106 22 12 22C13.8894 22 15.6588 21.3814 16.9556 20.0557C18.2536 18.7287 19 16.7736 19 14.25C19 11.6349 17.5084 8.78544 16.0289 6.58192C14.5286 4.34735 12.9334 2.62274 12.5303 2.21967ZM6.88416 12C7.36589 10.4621 8.24704 8.86182 9.21642 7.41807C10.2571 5.86806 11.3465 4.57503 12 3.84788C12.6535 4.57503 13.7429 5.86806 14.7836 7.41808C15.753 8.86183 16.6341 10.4621 17.1158 12H6.88416ZM6.54821 13.5C6.5166 13.7544 6.5 14.0048 6.5 14.25C6.5 16.4764 7.15271 18.0213 8.11673 19.0068C9.082 19.9936 10.4377 20.5 12 20.5C13.5623 20.5 14.918 19.9936 15.8833 19.0068C16.8473 18.0213 17.5 16.4764 17.5 14.25C17.5 14.0048 17.4834 13.7544 17.4518 13.5H6.54821Z" fill="#111827"/>
</svg>
