<svg width="24" height="24" viewBox="0 0 24 24" fill="none" xmlns="http://www.w3.org/2000/svg">
<path d="M7.75 2C8.16421 2 8.5 2.33579 8.5 2.75V3.5H15.5V2.75C15.5 2.33579 15.8358 2 16.25 2C16.6642 2 17 2.33579 17 2.75V11H15.75C15.6657 11 15.5823 11.0038 15.5 11.0112V8.875H8.5L8.5 11.25H14.6028C13.9577 11.5465 13.447 12.0854 13.1875 12.75H8.5L8.5 15.125H11.2668C11.0961 15.4631 11 15.8453 11 16.25V16.625H8.5L8.5 19H11V20.5H8.5V21.25C8.5 21.6642 8.16421 22 7.75 22C7.33579 22 7 21.6642 7 21.25V2.75C7 2.33579 7.33579 2 7.75 2ZM15.5 7.375V5H8.5L8.5 7.375H15.5Z" fill="#6B7280"/>
<path d="M13.5 14.75H14V13.75C14 12.7835 14.7835 12 15.75 12H19.25C20.2165 12 21 12.7835 21 13.75V14.75H21.5C22.3284 14.75 23 15.4216 23 16.25V18H20V17.5C20 17.2239 19.7761 17 19.5 17C19.2239 17 19 17.2239 19 17.5V18H16V17.5C16 17.2239 15.7761 17 15.5 17C15.2239 17 15 17.2239 15 17.5V18H12V16.25C12 15.4216 12.6716 14.75 13.5 14.75ZM15.75 13.5C15.6119 13.5 15.5 13.6119 15.5 13.75V14.75H19.5V13.75C19.5 13.6119 19.3881 13.5 19.25 13.5H15.75Z" fill="#6B7280"/>
<path d="M19 19.5V19H16V19.5C16 19.7761 15.7761 20 15.5 20C15.2239 20 15 19.7761 15 19.5V19H12V21.5C12 22.3284 12.6716 23 13.5 23H21.5C22.3284 23 23 22.3284 23 21.5V19H20V19.5C20 19.7761 19.7761 20 19.5 20C19.2239 20 19 19.7761 19 19.5Z" fill="#6B7280"/>
</svg>
