<svg width="24" height="24" viewBox="0 0 24 24" fill="none" xmlns="http://www.w3.org/2000/svg">
<path d="M7.5 2C8.05228 2 8.5 2.44772 8.5 3V3.5H15.5V3C15.5 2.44772 15.9477 2 16.5 2C17.0523 2 17.5 2.44772 17.5 3V11H15.75C14.4912 11 13.43 11.8457 13.1035 13H8.5625C8.54151 13 8.52067 12.9994 8.5 12.9981V14.7519C8.52067 14.7506 8.54151 14.75 8.5625 14.75H11.4998C11.186 15.1678 11 15.6872 11 16.25V16.75H8.5625C8.54151 16.75 8.52067 16.7494 8.5 16.7481L8.5 18.5H11V20.5H8.5L8.5 21C8.5 21.5523 8.05229 22 7.5 22C6.94772 22 6.5 21.5523 6.5 21V3C6.5 2.44772 6.94772 2 7.5 2ZM15.5 9.25H8.5625C8.54151 9.25 8.52067 9.24935 8.5 9.24808V11.0019C8.52067 11.0006 8.54151 11 8.5625 11H15.5V9.25ZM15.5 7.25V5.5H8.5V7.25192C8.52067 7.25065 8.54151 7.25 8.5625 7.25H15.5Z" fill="#1470CC"/>
<path d="M13.5 14.75H14V13.75C14 12.7835 14.7835 12 15.75 12H19.25C20.2165 12 21 12.7835 21 13.75V14.75H21.5C22.3284 14.75 23 15.4216 23 16.25V18H20V17.5C20 17.2239 19.7761 17 19.5 17C19.2239 17 19 17.2239 19 17.5V18H16V17.5C16 17.2239 15.7761 17 15.5 17C15.2239 17 15 17.2239 15 17.5V18H12V16.25C12 15.4216 12.6716 14.75 13.5 14.75ZM15.75 13.5C15.6119 13.5 15.5 13.6119 15.5 13.75V14.75H19.5V13.75C19.5 13.6119 19.3881 13.5 19.25 13.5H15.75Z" fill="#1470CC"/>
<path d="M19 19.5V19H16V19.5C16 19.7761 15.7761 20 15.5 20C15.2239 20 15 19.7761 15 19.5V19H12V21.5C12 22.3284 12.6716 23 13.5 23H21.5C22.3284 23 23 22.3284 23 21.5V19H20V19.5C20 19.7761 19.7761 20 19.5 20C19.2239 20 19 19.7761 19 19.5Z" fill="#1470CC"/>
</svg>
