<svg width="24" height="24" viewBox="0 0 24 24" fill="none" xmlns="http://www.w3.org/2000/svg">
<path d="M15.75 2C16.9926 2 18 3.00736 18 4.25V11.0189C17.835 11.0064 17.6682 11 17.5 11C17.1599 11 16.826 11.0261 16.5 11.0764V4.25C16.5 3.83579 16.1642 3.5 15.75 3.5H8.25C7.83579 3.5 7.5 3.83579 7.5 4.25V19.75C7.5 20.1642 7.83579 20.5 8.25 20.5H11.7322C12.0194 21.051 12.3832 21.5557 12.8096 22H8.25C7.00736 22 6 20.9926 6 19.75V4.25C6 3.00736 7.00736 2 8.25 2H15.75Z" fill="#111827"/>
<path d="M9.49878 17.7545C9.91299 17.7545 10.2488 18.0902 10.2488 18.5045C10.2488 18.9187 9.91299 19.2545 9.49878 19.2545C9.08457 19.2545 8.74878 18.9187 8.74878 18.5045C8.74878 18.0902 9.08457 17.7545 9.49878 17.7545Z" fill="#111827"/>
<path d="M13.752 5.49609C13.752 5.91031 14.0877 6.24609 14.502 6.24609C14.9162 6.24609 15.252 5.91031 15.252 5.49609C15.252 5.08188 14.9162 4.74609 14.502 4.74609C14.0877 4.74609 13.752 5.08188 13.752 5.49609Z" fill="#111827"/>
<path d="M12.002 6.24609C11.5877 6.24609 11.252 5.91031 11.252 5.49609C11.252 5.08188 11.5877 4.74609 12.002 4.74609C12.4162 4.74609 12.752 5.08188 12.752 5.49609C12.752 5.91031 12.4162 6.24609 12.002 6.24609Z" fill="#111827"/>
<path d="M8.75195 5.49609C8.75195 5.91031 9.08774 6.24609 9.50195 6.24609C9.91617 6.24609 10.252 5.91031 10.252 5.49609C10.252 5.08188 9.91617 4.74609 9.50195 4.74609C9.08774 4.74609 8.75195 5.08188 8.75195 5.49609Z" fill="#111827"/>
<path fill-rule="evenodd" clip-rule="evenodd" d="M17.5 12C20.5376 12 23 14.4624 23 17.5C23 20.5376 20.5376 23 17.5 23C14.4624 23 12 20.5376 12 17.5C12 14.4624 14.4624 12 17.5 12ZM19.5 17.5001H17.5L17.5 14.9999C17.5 14.7238 17.2761 14.4999 17 14.4999C16.7239 14.4999 16.5 14.7238 16.5 14.9999L16.5 17.9985L16.5 18.0001C16.5 18.2762 16.7239 18.5001 17 18.5001H19.5C19.7761 18.5001 20 18.2762 20 18.0001C20 17.7239 19.7761 17.5001 19.5 17.5001Z" fill="#111827"/>
</svg>
