<svg width="24" height="24" viewBox="0 0 24 24" fill="none" xmlns="http://www.w3.org/2000/svg">
<path d="M12 9.5C10.2444 9.5 8.79071 10.7926 8.53867 12.478C8.95284 12.8894 9.27059 13 9.49996 13C9.73087 13 10.0513 12.8879 10.4696 12.4697C10.8921 12.0471 11.4761 11.8749 11.9999 11.8749C12.5238 11.8749 13.1078 12.0471 13.5303 12.4696C13.9485 12.8878 14.269 12.9999 14.4999 12.9999C14.7293 12.9999 15.0471 12.8893 15.4613 12.4778C15.2092 10.7925 13.7556 9.5 12 9.5Z" fill="#1470CC"/>
<path d="M6.25 3C4.45507 3 3 4.45508 3 6.25V17.75C3 19.5449 4.45508 21 6.25 21H17.75C19.5449 21 21 19.5449 21 17.75V6.25C21 4.45507 19.5449 3 17.75 3H6.25ZM14.75 7.5C14.3358 7.5 14 7.16421 14 6.75C14 6.33579 14.3358 6 14.75 6C15.1642 6 15.5 6.33579 15.5 6.75C15.5 7.16421 15.1642 7.5 14.75 7.5ZM17.25 7.5C16.8358 7.5 16.5 7.16421 16.5 6.75C16.5 6.33579 16.8358 6 17.25 6C17.6642 6 18 6.33579 18 6.75C18 7.16421 17.6642 7.5 17.25 7.5ZM7 13C7 10.2386 9.23858 8 12 8C14.7614 8 17 10.2386 17 13C17 15.7614 14.7614 18 12 18C9.23858 18 7 15.7614 7 13Z" fill="#1470CC"/>
</svg>
