<svg width="20" height="20" viewBox="0 0 20 20" fill="none" xmlns="http://www.w3.org/2000/svg">
<path fill-rule="evenodd" clip-rule="evenodd" d="M7 2C5.89543 2 5 2.89543 5 4V16C5 17.1046 5.89543 18 7 18H13C14.1046 18 15 17.1046 15 16V4C15 2.89543 14.1046 2 13 2H7ZM8.5 14.5C8.5 14.7761 8.27614 15 8 15C7.72386 15 7.5 14.7761 7.5 14.5C7.5 14.2239 7.72386 14 8 14C8.27614 14 8.5 14.2239 8.5 14.5ZM10.5 14.5C10.5 14.7761 10.2761 15 10 15C9.72386 15 9.5 14.7761 9.5 14.5C9.5 14.2239 9.72386 14 10 14C10.2761 14 10.5 14.2239 10.5 14.5ZM12 14C12.2761 14 12.5 14.2239 12.5 14.5C12.5 14.7761 12.2761 15 12 15C11.7239 15 11.5 14.7761 11.5 14.5C11.5 14.2239 11.7239 14 12 14ZM7.5 5.5C7.5 5.77614 7.72386 6 8 6C8.27614 6 8.5 5.77614 8.5 5.5C8.5 5.22386 8.27614 5 8 5C7.72386 5 7.5 5.22386 7.5 5.5ZM9.5 5.5C9.5 5.22386 9.72386 5 10 5C10.2761 5 10.5 5.22386 10.5 5.5C10.5 5.77614 10.2761 6 10 6C9.72386 6 9.5 5.77614 9.5 5.5ZM11.5 5.5C11.5 5.22386 11.7239 5 12 5C12.2761 5 12.5 5.22386 12.5 5.5C12.5 5.77614 12.2761 6 12 6C11.7239 6 11.5 5.77614 11.5 5.5Z" fill="#111827"/>
</svg>
