<svg width="24" height="24" viewBox="0 0 24 24" fill="none" xmlns="http://www.w3.org/2000/svg">
<path fill-rule="evenodd" clip-rule="evenodd" d="M18 4.25C18 3.00736 16.9926 2 15.75 2H8.25C7.00736 2 6 3.00736 6 4.25V19.75C6 20.9926 7.00736 22 8.25 22H15.75C16.9926 22 18 20.9926 18 19.75V4.25ZM8.74878 18.5119C8.74878 18.0977 9.08457 17.7619 9.49878 17.7619C9.91299 17.7619 10.2488 18.0977 10.2488 18.5119C10.2488 18.9261 9.91299 19.2619 9.49878 19.2619C9.08457 19.2619 8.74878 18.9261 8.74878 18.5119ZM11.2488 18.5119C11.2488 18.0977 11.5846 17.7619 11.9988 17.7619C12.413 17.7619 12.7488 18.0977 12.7488 18.5119C12.7488 18.9261 12.413 19.2619 11.9988 19.2619C11.5846 19.2619 11.2488 18.9261 11.2488 18.5119ZM13.7488 18.5119C13.7488 18.0977 14.0846 17.7619 14.4988 17.7619C14.913 17.7619 15.2488 18.0977 15.2488 18.5119C15.2488 18.9261 14.913 19.2619 14.4988 19.2619C14.0846 19.2619 13.7488 18.9261 13.7488 18.5119ZM9.50195 6.23828C9.91617 6.23828 10.252 5.90249 10.252 5.48828C10.252 5.07407 9.91617 4.73828 9.50195 4.73828C9.08774 4.73828 8.75195 5.07407 8.75195 5.48828C8.75195 5.90249 9.08774 6.23828 9.50195 6.23828ZM12.752 5.48828C12.752 5.90249 12.4162 6.23828 12.002 6.23828C11.5877 6.23828 11.252 5.90249 11.252 5.48828C11.252 5.07407 11.5877 4.73828 12.002 4.73828C12.4162 4.73828 12.752 5.07407 12.752 5.48828ZM15.252 5.48828C15.252 5.90249 14.9162 6.23828 14.502 6.23828C14.0877 6.23828 13.752 5.90249 13.752 5.48828C13.752 5.07407 14.0877 4.73828 14.502 4.73828C14.9162 4.73828 15.252 5.07407 15.252 5.48828Z" fill="#111827"/>
</svg>
