<svg width="24" height="24" viewBox="0 0 24 24" fill="none" xmlns="http://www.w3.org/2000/svg">
<path d="M9.50195 6.24609C9.08774 6.24609 8.75195 5.91031 8.75195 5.49609C8.75195 5.08188 9.08774 4.74609 9.50195 4.74609C9.91617 4.74609 10.252 5.08188 10.252 5.49609C10.252 5.91031 9.91617 6.24609 9.50195 6.24609Z" fill="#111827"/>
<path d="M11.252 5.49609C11.252 5.91031 11.5877 6.24609 12.002 6.24609C12.4162 6.24609 12.752 5.91031 12.752 5.49609C12.752 5.08188 12.4162 4.74609 12.002 4.74609C11.5877 4.74609 11.252 5.08188 11.252 5.49609Z" fill="#111827"/>
<path d="M14.502 6.24609C14.0877 6.24609 13.752 5.91031 13.752 5.49609C13.752 5.08188 14.0877 4.74609 14.502 4.74609C14.9162 4.74609 15.252 5.08188 15.252 5.49609C15.252 5.91031 14.9162 6.24609 14.502 6.24609Z" fill="#111827"/>
<path fill-rule="evenodd" clip-rule="evenodd" d="M15.75 2C16.9926 2 18 3.00736 18 4.25V11.0241C17.8355 11.0082 17.6687 11 17.5 11C17.1578 11 16.8234 11.0335 16.5 11.0975V9.5L7.5 9.5V14.5L12.638 14.5C12.4799 14.973 12.389 15.4768 12.3765 16L7.5 16V19.75C7.5 20.1642 7.83579 20.5 8.25 20.5H14.0566L14.4657 22H8.25C7.00736 22 6 20.9926 6 19.75V4.25C6 3.00736 7.00736 2 8.25 2H15.75ZM15.75 3.5H8.25C7.83579 3.5 7.5 3.83579 7.5 4.25V8L16.5 8V4.25C16.5 3.83579 16.1642 3.5 15.75 3.5Z" fill="#111827"/>
<path d="M10.2488 18.5045C10.2488 18.0902 9.91299 17.7545 9.49878 17.7545C9.08457 17.7545 8.74878 18.0902 8.74878 18.5045C8.74878 18.9187 9.08457 19.2545 9.49878 19.2545C9.91299 19.2545 10.2488 18.9187 10.2488 18.5045Z" fill="#111827"/>
<path d="M11.9988 17.7545C12.413 17.7545 12.7488 18.0902 12.7488 18.5045C12.7488 18.9187 12.413 19.2545 11.9988 19.2545C11.5846 19.2545 11.2488 18.9187 11.2488 18.5045C11.2488 18.0902 11.5846 17.7545 11.9988 17.7545Z" fill="#111827"/>
<path d="M17.5 12C15.2218 12 13.375 13.8468 13.375 16.125C13.375 17.2763 13.8473 18.3182 14.6076 19.066C14.6962 19.1532 14.7504 19.2434 14.7736 19.3283L15.0249 20.25H19.9751L20.2264 19.3283C20.2496 19.2434 20.3038 19.1532 20.3924 19.066C21.1527 18.3182 21.625 17.2763 21.625 16.125C21.625 13.8468 19.7782 12 17.5 12ZM19.7251 21.1667H15.2749L15.4986 21.9868C15.6617 22.585 16.2051 23 16.8251 23H18.1749C18.7949 23 19.3383 22.585 19.5014 21.9868L19.7251 21.1667Z" fill="url(#paint0_linear_7226_56922)"/>
<defs>
<linearGradient id="paint0_linear_7226_56922" x1="13.375" y1="12" x2="22.7303" y2="13.0379" gradientUnits="userSpaceOnUse">
<stop stop-color="#FFCF1B"/>
<stop offset="1" stop-color="#FF881B"/>
</linearGradient>
</defs>
</svg>
