<svg width="32" height="20" viewBox="0 0 32 20" xmlns="http://www.w3.org/2000/svg">
<g clip-path="url(#clip0_2957_57736)">
<path d="M20.8536 15.8203H16.8497V17.6758H20.8536V15.8203Z"/>
<path d="M15.8732 16.7969H11.8693V17.6758H15.8732V16.7969Z"/>
<path d="M14.8966 18.8477H11.9669V19.7266H14.8966V18.8477Z"/>
<path d="M15.8732 15.8203H13.92V16.7969H15.8732V15.8203Z"/>
<path d="M17.8263 13.7695H15.8732V15.8203H17.8263V13.7695Z"/>
<path d="M14.8966 13.8672H12.8458V14.6484H14.8966V13.8672Z"/>
<path d="M20.756 18.75H18.8029V19.7266H20.756V18.75Z"/>
<path d="M20.8536 17.6758H19.8771V19.7266H20.8536V17.6758Z"/>
<path d="M19.7794 13.7695H18.8029V14.6484H19.7794V13.7695Z"/>
<path d="M16.8497 17.6758H15.8732V18.6523H16.8497V17.6758Z"/>
<path d="M12.8458 14.6484H11.8693V20.6055H12.8458V14.6484Z"/>
<path d="M20.8536 19.7266H19.8771V20.7031H20.8536V19.7266Z"/>
<path d="M18.8029 19.7266H17.8263V20.7031H18.8029V19.7266Z"/>
<path d="M16.8497 19.7266H15.8732V20.6055H16.8497V19.7266Z"/>
<path d="M14.8966 18.8477H13.92V20.6055H14.8966V18.8477Z"/>
<path d="M12.8181 6.482L11.7261 5.61712V4.08831C11.7261 3.97474 11.6824 3.9398 11.6038 3.9398H10.9223C10.8262 3.9398 10.7738 3.95727 10.7738 4.08831V4.86582C9.55077 3.89612 8.22289 2.84779 8.17047 2.8041C8.06564 2.72548 8.00448 2.70801 7.9346 2.70801C7.86471 2.70801 7.80355 2.72548 7.69872 2.8041C7.59389 2.88273 3.18217 6.37716 3.05112 6.482C2.88514 6.61304 2.93755 6.7965 3.11228 6.7965H3.97715V11.479C3.97715 11.6887 4.0383 11.811 4.17808 11.8634C4.23923 11.8896 4.30038 11.8984 4.38774 11.8984H11.4902C11.5775 11.8984 11.6474 11.8809 11.6998 11.8634C11.8309 11.811 11.9008 11.6887 11.9008 11.479V6.7965H12.7657C12.9491 6.7965 12.9928 6.61304 12.8268 6.482H12.8181ZM4.54499 6.39464C4.54499 6.13255 4.65856 5.96657 4.7896 5.86173C4.92065 5.7569 7.65504 3.63403 7.72493 3.57288C7.80355 3.51173 7.86471 3.48552 7.9346 3.48552C8.00448 3.48552 8.06564 3.51173 8.14426 3.57288C8.22289 3.63403 10.9485 5.7569 11.0796 5.86173C11.2106 5.96657 11.3242 6.13255 11.3242 6.39464V10.9287C11.3242 11.1471 11.2106 11.2956 10.9835 11.2956H4.87697C4.64983 11.2956 4.53626 11.1471 4.53626 10.9287V6.39464H4.54499Z"/>
<path d="M5.81133 10.3001H10.0658C10.2231 10.3001 10.3279 10.2127 10.3279 10.0293V6.77944C10.3279 6.59598 10.2842 6.49988 10.1619 6.39505C10.092 6.3339 8.1526 4.80508 8.10018 4.77014C8.04777 4.72646 7.99535 4.70898 7.94293 4.70898C7.89052 4.70898 7.8381 4.72646 7.78568 4.77014C7.73327 4.81382 5.80259 6.34263 5.72397 6.39505C5.59293 6.49988 5.55798 6.59598 5.55798 6.77944V10.0293C5.55798 10.2127 5.66282 10.3001 5.82007 10.3001H5.81133ZM6.1433 6.9891C6.1433 6.87553 6.1433 6.78817 6.26561 6.69208C6.34423 6.63092 7.76821 5.50397 7.81189 5.46902C7.85557 5.43408 7.89925 5.41661 7.94293 5.41661C7.98661 5.41661 8.0303 5.43408 8.07398 5.46902C8.11766 5.50397 9.54164 6.63092 9.62026 6.69208C9.74257 6.78817 9.74257 6.87553 9.74257 6.9891V9.47015C9.74257 9.6274 9.65521 9.68855 9.5329 9.68855H6.35297C6.23066 9.68855 6.1433 9.6274 6.1433 9.47015V6.9891Z"/>
<path d="M7.07813 8.8849H8.79914C8.87777 8.8849 8.93018 8.85869 8.93018 8.74512V7.35608C8.93018 7.28619 8.89524 7.20757 8.83409 7.15515C8.79914 7.12894 8.04784 6.55236 8.02163 6.52616C7.99542 6.49995 7.96048 6.49121 7.93427 6.49121C7.90806 6.49121 7.87312 6.49995 7.84691 6.52616C7.8207 6.55236 7.0694 7.12021 7.03445 7.15515C6.9733 7.20757 6.93835 7.28619 6.93835 7.35608V8.74512C6.93835 8.85869 6.99077 8.8849 7.0694 8.8849H7.07813ZM7.53241 7.57449C7.53241 7.57449 7.54114 7.51333 7.57609 7.48712C7.59356 7.47839 7.89932 7.23378 7.90806 7.22504C7.9168 7.22504 7.93427 7.20757 7.943 7.20757C7.95174 7.20757 7.96921 7.20757 7.97795 7.22504C7.98668 7.22504 8.29245 7.46965 8.30992 7.48712C8.33613 7.51333 8.3536 7.53954 8.3536 7.57449V8.22969C8.3536 8.27337 8.32739 8.29084 8.30118 8.29084H7.6023C7.6023 8.29084 7.54988 8.28211 7.54988 8.22969V7.57449H7.53241Z"/>
<path d="M16.1637 6.70909H15.456V4.05332C15.194 4.29793 14.8969 4.47265 14.5475 4.58622V3.94849C14.7309 3.88733 14.9319 3.77376 15.1503 3.60778C15.3687 3.44179 15.5172 3.24086 15.5958 3.02246H16.1637V6.70909Z"/>
<path d="M20.6717 6.05388V6.70909H18.1993C18.2255 6.46448 18.3042 6.2286 18.444 6.0102C18.575 5.7918 18.8371 5.49477 19.2389 5.12786C19.5534 4.83083 19.7544 4.6299 19.8243 4.52507C19.9203 4.37655 19.9728 4.23678 19.9728 4.097C19.9728 3.93975 19.9291 3.81744 19.8505 3.73882C19.7631 3.65146 19.6495 3.60778 19.501 3.60778C19.3525 3.60778 19.2389 3.65146 19.1516 3.73882C19.0642 3.82618 19.0118 3.97469 19.0031 4.18436L18.3042 4.11447C18.3479 3.73008 18.4789 3.45053 18.6973 3.27581C18.9157 3.10982 19.1953 3.02246 19.5272 3.02246C19.8854 3.02246 20.1737 3.11856 20.3834 3.31949C20.593 3.51168 20.6979 3.75629 20.6979 4.05332C20.6979 4.2193 20.6717 4.37655 20.6105 4.52507C20.5493 4.67358 20.4532 4.83083 20.3309 4.99682C20.2436 5.10165 20.0951 5.2589 19.8679 5.46857C19.6495 5.6695 19.501 5.80927 19.4486 5.87042C19.3874 5.94031 19.3438 6.00147 19.3088 6.06262H20.7066L20.6717 6.05388Z"/>
<path d="M22.183 5.73054L22.8644 5.65192C22.8906 5.82664 22.943 5.95768 23.0391 6.04504C23.1352 6.14114 23.2488 6.18482 23.3886 6.18482C23.5371 6.18482 23.6594 6.1324 23.7555 6.01883C23.8516 5.90526 23.904 5.75675 23.904 5.57329C23.904 5.39857 23.8603 5.25879 23.7642 5.15396C23.6681 5.04913 23.5545 4.99671 23.4148 4.99671C23.3274 4.99671 23.2138 5.01418 23.0915 5.04913L23.1702 4.47255C23.3624 4.47255 23.5021 4.4376 23.607 4.35024C23.7031 4.26288 23.7555 4.14931 23.7555 4.0008C23.7555 3.87849 23.7205 3.78239 23.6419 3.70377C23.572 3.63388 23.4672 3.5902 23.3449 3.5902C23.2226 3.5902 23.1177 3.63388 23.0391 3.71251C22.9518 3.79987 22.8993 3.92217 22.8819 4.07942L22.2354 3.96585C22.2791 3.74745 22.349 3.56399 22.4363 3.43295C22.5237 3.30191 22.6547 3.19708 22.8207 3.11845C22.9867 3.03983 23.1702 3.00488 23.3711 3.00488C23.7205 3.00488 23.9914 3.11845 24.201 3.33685C24.3757 3.52031 24.4631 3.72124 24.4631 3.94838C24.4631 4.27162 24.2884 4.52496 23.9302 4.71716C24.1399 4.76084 24.3059 4.86567 24.4369 5.02292C24.5592 5.18017 24.6291 5.37236 24.6291 5.59076C24.6291 5.914 24.5155 6.18482 24.2796 6.41196C24.0438 6.63909 23.7467 6.75266 23.3973 6.75266C23.0653 6.75266 22.7858 6.65657 22.5674 6.46437C22.349 6.27218 22.2179 6.01883 22.183 5.71307"/>
<path d="M27.5555 6.6652V5.93137H26.0529V5.31984L27.6428 2.9873H28.2369V5.3111H28.6912V5.93137H28.2369V6.6652H27.5555ZM27.5555 5.3111V4.06184L26.7081 5.3111H27.5555Z"/>
<path d="M14.5913 10.8851L15.2989 10.8152C15.3164 10.9724 15.3775 11.1035 15.4736 11.1908C15.5697 11.2869 15.6833 11.3306 15.8143 11.3306C15.9628 11.3306 16.0851 11.2694 16.19 11.1471C16.2948 11.0248 16.3385 10.8501 16.3385 10.6055C16.3385 10.3784 16.2861 10.2124 16.19 10.0988C16.0851 9.98523 15.9541 9.93282 15.7968 9.93282C15.5959 9.93282 15.4124 10.0202 15.2465 10.2036L14.6699 10.1163L15.0368 8.19434H16.9063V8.85828H15.5697L15.4561 9.48728C15.6134 9.40865 15.7794 9.36497 15.9366 9.36497C16.2511 9.36497 16.5132 9.47854 16.7316 9.70568C16.95 9.93282 17.0548 10.2298 17.0548 10.5968C17.0548 10.9025 16.9675 11.1733 16.7927 11.4092C16.5569 11.7325 16.2162 11.8984 15.7968 11.8984C15.4561 11.8984 15.1766 11.8111 14.9669 11.6276C14.7572 11.4442 14.6262 11.1995 14.5825 10.8938"/>
<path d="M21.0296 9.04131L20.3482 9.11994C20.3307 8.98016 20.287 8.87533 20.2171 8.80544C20.1473 8.73555 20.0512 8.7006 19.9463 8.7006C19.7978 8.7006 19.6668 8.77049 19.5707 8.90153C19.4658 9.03258 19.4047 9.31213 19.3785 9.7402C19.5532 9.53053 19.7716 9.4257 20.0337 9.4257C20.3307 9.4257 20.5841 9.53927 20.7937 9.76641C21.0034 9.99355 21.1082 10.2818 21.1082 10.64C21.1082 11.0157 20.9947 11.3214 20.7763 11.5486C20.5579 11.7757 20.2696 11.8893 19.9201 11.8893C19.5445 11.8893 19.2387 11.7495 19.0028 11.4525C18.767 11.1642 18.6447 10.6924 18.6447 10.0285C18.6447 9.36455 18.767 8.86659 19.0203 8.56956C19.2737 8.27254 19.5969 8.12402 19.9987 8.12402C20.2783 8.12402 20.5142 8.20265 20.6976 8.3599C20.8811 8.51715 20.9947 8.74429 21.0471 9.04131M19.4396 10.5876C19.4396 10.8147 19.4921 10.9982 19.5969 11.1205C19.7017 11.2428 19.824 11.304 19.9638 11.304C20.1036 11.304 20.1997 11.2515 20.287 11.1467C20.3744 11.0419 20.4181 10.8759 20.4181 10.64C20.4181 10.4041 20.3744 10.2207 20.2783 10.1159C20.1822 10.0023 20.0686 9.94987 19.9289 9.94987C19.7891 9.94987 19.6755 10.0023 19.5882 10.1071C19.4921 10.2119 19.4484 10.3692 19.4484 10.5789"/>
<path d="M22.4889 8.83196V8.17676H24.9088V8.69219C24.7079 8.89312 24.5069 9.17267 24.2973 9.53959C24.0876 9.9065 23.9303 10.2996 23.8255 10.7102C23.7207 11.1208 23.6595 11.4965 23.6683 11.8197H22.9868C22.9956 11.313 23.1004 10.7888 23.3013 10.2559C23.5023 9.72305 23.7644 9.2513 24.0963 8.83196H22.4889Z"/>
<path d="M26.9615 9.86303C26.7868 9.79315 26.6558 9.68831 26.5772 9.55727C26.4985 9.42623 26.4548 9.28645 26.4548 9.1292C26.4548 8.86712 26.5509 8.64872 26.7344 8.474C26.9179 8.29928 27.1799 8.21191 27.5206 8.21191C27.8614 8.21191 28.1234 8.29928 28.3069 8.474C28.4904 8.64872 28.5865 8.86712 28.5865 9.1292C28.5865 9.29519 28.5428 9.4437 28.4554 9.56601C28.368 9.69705 28.2457 9.79315 28.0972 9.86303C28.2982 9.94166 28.4467 10.0552 28.5428 10.2125C28.6476 10.361 28.7 10.5357 28.7 10.7366C28.7 11.0599 28.5952 11.3307 28.3855 11.5316C28.1759 11.7413 27.8963 11.8374 27.5556 11.8374C27.2324 11.8374 26.9615 11.75 26.7519 11.584C26.4985 11.3831 26.3762 11.1123 26.3762 10.7629C26.3762 10.5707 26.4199 10.3959 26.516 10.23C26.6121 10.0727 26.7606 9.9504 26.9615 9.8543M27.0402 10.693C27.0402 10.8764 27.0838 11.0249 27.1799 11.1298C27.276 11.2346 27.3983 11.287 27.5381 11.287C27.6779 11.287 27.7915 11.2346 27.8876 11.1385C27.9837 11.0337 28.0273 10.8939 28.0273 10.7017C28.0273 10.5357 27.9837 10.4047 27.8876 10.2998C27.7915 10.195 27.6779 10.1513 27.5294 10.1513C27.3634 10.1513 27.2411 10.2037 27.1537 10.326C27.0664 10.4484 27.0314 10.5619 27.0314 10.7017M27.0926 9.18162C27.0926 9.3214 27.1275 9.42623 27.2061 9.49612C27.2848 9.57474 27.3896 9.60969 27.5119 9.60969C27.6342 9.60969 27.7478 9.57474 27.8264 9.49612C27.905 9.41749 27.94 9.31266 27.94 9.18162C27.94 9.05058 27.905 8.95448 27.8264 8.87586C27.7478 8.79723 27.6517 8.76229 27.5206 8.76229C27.3896 8.76229 27.2848 8.80597 27.2061 8.87586C27.1275 8.95448 27.0926 9.05931 27.0926 9.18162Z"/>
<path d="M28.3157 1.05707C29.7048 1.05707 30.8317 2.18402 30.8317 3.57306V38.1418C30.8317 39.5308 29.7048 40.6577 28.3157 40.6577H4.50116C3.11212 40.6577 1.98517 39.5308 1.98517 38.1418V3.57306C1.98517 2.18402 3.11212 1.05707 4.50116 1.05707H28.3157ZM28.3157 0H4.50116C2.5268 0 0.928101 1.5987 0.928101 3.57306V38.1418C0.928101 40.1161 2.5268 41.7148 4.50116 41.7148H28.3157C30.2901 41.7148 31.8888 40.1161 31.8888 38.1418V3.57306C31.8888 1.5987 30.2901 0 28.3157 0Z"/>
<path fill-rule="evenodd" clip-rule="evenodd" d="M10.8927 13.7695V20.6055H3.95911V13.7695H10.8927ZM9.91614 19.7266V14.6484H4.93567V19.7266H9.91614Z"/>
<path d="M8.93958 15.7227H5.91223V18.6523H8.93958V15.7227Z"/>
<path fill-rule="evenodd" clip-rule="evenodd" d="M28.7638 13.7695V20.6055H21.8302V13.7695H28.7638ZM27.7872 19.7266V14.6484H22.8068V19.7266H27.7872Z"/>
<path d="M26.8107 15.7227H23.7833V18.6523H26.8107V15.7227Z"/>
</g>
<defs>
<clipPath id="clip0_2957_57736">
<rect width="30.9607" height="41.7148" transform="translate(0.928101)"/>
</clipPath>
</defs>
</svg>
