<svg width="24" height="24" viewBox="0 0 24 24" fill="none" xmlns="http://www.w3.org/2000/svg">
<path d="M8 13C7.44772 13 7 12.5523 7 12C7 11.4477 7.44772 11 8 11C8.55229 11 9 11.4477 9 12C9 12.5523 8.55229 13 8 13Z" fill="#111827"/>
<path d="M11.1786 21.9967L11.0782 21.98L2.57822 19.98C2.27331 19.9083 2.04888 19.6562 2.00704 19.3528L2 19.25V4.74997C2 4.43673 2.19394 4.16054 2.47971 4.05032L2.57822 4.0199L11.0782 2.01991C11.5154 1.91705 11.9355 2.21769 11.9933 2.64839L12 2.74997L12 11.2543L19.4258 11.2534L17.7034 9.52966C17.4372 9.26335 17.4131 8.84668 17.631 8.55311L17.7036 8.469C17.9699 8.20278 18.3866 8.17865 18.6801 8.39655L18.7643 8.46918L21.7609 11.4668C22.0268 11.7329 22.0512 12.1491 21.8338 12.4427L21.7614 12.5268L18.7648 15.5302C18.4722 15.8235 17.9973 15.824 17.7041 15.5314C17.4375 15.2655 17.4129 14.8488 17.6304 14.555L17.7029 14.4708L19.4158 12.7534L12 12.7543L12 21.25C12 21.6645 11.6687 21.9862 11.2775 21.9998L11.1786 21.9967ZM10.5 3.69692L3.5 5.34398L3.5 18.656L10.5 20.303L10.5 3.69692Z" fill="#111827"/>
<path d="M15 9.75391H13.5V3.99976H14.25C14.6297 3.99976 14.9435 4.28191 14.9932 4.64798L15 4.74975L15 9.75391Z" fill="#111827"/>
<path d="M14.25 19.9998H13.5V14.2539H15V19.2498C15 19.6295 14.7178 19.9432 14.3518 19.9929L14.25 19.9998Z" fill="#111827"/>
</svg>
