<svg width="24" height="24" viewBox="0 0 24 24" fill="none" xmlns="http://www.w3.org/2000/svg">
<path d="M8 12.9998C7.44772 12.9998 7 12.5521 7 11.9998C7 11.4476 7.44772 10.9998 8 10.9998C8.55229 10.9998 9 11.4476 9 11.9998C9 12.5521 8.55229 12.9998 8 12.9998Z" fill="#1470CC"/>
<path d="M11.1786 21.9966L11.0782 21.9799L2.57822 19.9799C2.27331 19.9082 2.04888 19.6561 2.00704 19.3527L2 19.2498V4.74985C2 4.43661 2.19394 4.16042 2.47971 4.0502L2.57822 4.01978L11.0782 2.01978C11.5154 1.91692 11.9355 2.21757 11.9933 2.64827L12 2.74985L12 11.2542L19.4258 11.2533L17.7034 9.52954C17.4372 9.26323 17.4131 8.84656 17.631 8.55298L17.7036 8.46888C17.9699 8.20266 18.3866 8.17852 18.6801 8.39643L18.7643 8.46906L21.7609 11.4667C22.0268 11.7328 22.0512 12.149 21.8338 12.4425L21.7614 12.5267L18.7648 15.5301C18.4722 15.8233 17.9973 15.8239 17.7041 15.5313C17.4375 15.2654 17.4129 14.8487 17.6304 14.5549L17.7029 14.4707L19.4158 12.7533L12 12.7542L12 21.2498C12 21.6644 11.6687 21.986 11.2775 21.9997L11.1786 21.9966ZM10.5 3.6968L3.5 5.34386L3.5 18.6558L10.5 20.3029L10.5 3.6968Z" fill="#1470CC"/>
<path d="M15 9.75378H13.5V3.99963H14.25C14.6297 3.99963 14.9435 4.28179 14.9932 4.64786L15 4.74963L15 9.75378Z" fill="#1470CC"/>
<path d="M14.25 19.9996H13.5V14.2538H15V19.2496C15 19.6293 14.7178 19.9431 14.3518 19.9928L14.25 19.9996Z" fill="#1470CC"/>
</svg>
