<svg width="24" height="24" viewBox="0 0 24 24" fill="none" xmlns="http://www.w3.org/2000/svg">
<path d="M9.23438 9.55698C9.23438 7.81129 10.5277 6.5 11.9999 6.5C12.4141 6.5 12.7499 6.16421 12.7499 5.75C12.7499 5.33579 12.4141 5 11.9999 5C9.58899 5 7.73438 7.0976 7.73438 9.55698C7.73438 9.9712 8.07016 10.307 8.48438 10.307C8.89859 10.307 9.23438 9.9712 9.23438 9.55698Z" fill="#111827"/>
<path d="M7.32581 15.2495C5.74843 13.8693 4.75195 11.8067 4.75195 9.51018C4.75195 5.39102 7.96976 2.00098 12.0006 2.00098C16.0314 2.00098 19.2492 5.39102 19.2492 9.51018C19.2492 11.8069 18.2525 13.8698 16.6749 15.2499L15.8411 20.1283C15.6564 21.209 14.7197 21.9993 13.6233 21.9993H10.3775C9.2811 21.9993 8.34434 21.209 8.15964 20.1283L7.32581 15.2495ZM6.25195 9.51018C6.25195 11.4228 7.10535 13.1193 8.4272 14.2175C8.59608 14.3276 8.72034 14.5051 8.75698 14.7195L9.10618 16.7627L14.8946 16.7627L15.2438 14.7195C15.2806 14.5042 15.4057 14.3262 15.5756 14.2162C16.8965 13.118 17.7492 11.422 17.7492 9.51018C17.7492 6.16333 15.148 3.50098 12.0006 3.50098C8.85322 3.50098 6.25195 6.16333 6.25195 9.51018ZM9.36254 18.2627L9.6382 19.8756C9.69976 20.2359 10.012 20.4993 10.3775 20.4993H13.6233C13.9887 20.4993 14.301 20.2359 14.3625 19.8756L14.6382 18.2627H9.36254Z" fill="#111827"/>
</svg>
