<svg width="48" height="48" viewBox="0 0 48 48" fill="none" xmlns="http://www.w3.org/2000/svg">
<path d="M24.0223 11.5C19.9362 11.5 16.5938 14.8643 16.5938 19.0515C16.5938 19.7418 16.0341 20.3015 15.3438 20.3015C14.6534 20.3015 14.0938 19.7418 14.0938 19.0515C14.0938 13.5168 18.5224 9 24.0223 9C24.7127 9 25.2723 9.55964 25.2723 10.25C25.2723 10.9404 24.7127 11.5 24.0223 11.5Z" fill="#111827"/>
<path d="M14.4901 30.4645C11.1926 27.7231 9.08984 23.5837 9.08984 18.9536C9.08984 10.6968 15.7736 4 24.0224 4C32.2712 4 38.9549 10.6968 38.9549 18.9536C38.9549 23.584 36.8519 27.7237 33.554 30.465L31.7871 40.42C31.4191 42.4937 29.6164 44.0046 27.5102 44.0046H20.534C18.4278 44.0046 16.6251 42.4937 16.2571 40.42L14.4901 30.4645ZM11.5898 18.9536C11.5898 22.9042 13.4248 26.4244 16.2917 28.7076C16.5849 28.8881 16.8027 29.1882 16.8676 29.5538L17.6817 34.1406L30.3626 34.1406L31.1767 29.5538C31.2417 29.1872 31.4605 28.8864 31.7549 28.7061C34.6207 26.4229 36.4549 22.9034 36.4549 18.9536C36.4549 12.0739 30.8869 6.5 24.0224 6.5C17.1579 6.5 11.5898 12.0739 11.5898 18.9536ZM18.1254 36.6406L18.7186 39.9831C18.8748 40.8633 19.64 41.5046 20.534 41.5046H27.5102C28.4042 41.5046 29.1694 40.8633 29.3256 39.9831L29.9189 36.6406H18.1254Z" fill="#111827"/>
</svg>
