<svg width="32" height="32" viewBox="0 0 32 32" fill="none" xmlns="http://www.w3.org/2000/svg">
<path d="M11.8438 12.5882C11.8438 9.97994 13.7831 8 16.0158 8C16.5681 8 17.0158 7.55228 17.0158 7C17.0158 6.44772 16.5681 6 16.0158 6C12.5356 6 9.84375 9.02394 9.84375 12.5882C9.84375 13.1405 10.2915 13.5882 10.8438 13.5882C11.396 13.5882 11.8438 13.1405 11.8438 12.5882Z" fill="#111827"/>
<path d="M9.55042 20.543C7.35892 18.6079 5.97656 15.7136 5.97656 12.4933C5.97656 6.73191 10.4234 1.97168 16.0167 1.97168C21.61 1.97168 26.0569 6.73191 26.0569 12.4933C26.0569 15.7155 24.6728 18.6114 22.479 20.5465L21.3091 27.4786C21.0603 28.9524 19.784 30.0314 18.2893 30.0314H13.7407C12.246 30.0314 10.9697 28.9524 10.7209 27.4786L9.55042 20.543ZM7.97656 12.4933C7.97656 15.2168 9.18002 17.6291 11.038 19.1846C11.2549 19.3325 11.4137 19.5651 11.4608 19.8445L11.9634 22.8223H20.0666L20.5692 19.8445C20.6176 19.558 20.7833 19.3206 21.0088 19.1734C22.8592 17.6176 24.0569 15.2102 24.0569 12.4933C24.0569 7.73742 20.4089 3.97168 16.0167 3.97168C11.6245 3.97168 7.97656 7.73742 7.97656 12.4933ZM12.3009 24.8223L12.6931 27.1457C12.7794 27.6571 13.2222 28.0314 13.7407 28.0314H18.2893C18.8079 28.0314 19.2507 27.6571 19.337 27.1457L19.7291 24.8223H12.3009Z" fill="#111827"/>
</svg>
