<svg width="16" height="16" viewBox="0 0 16 16" fill="none" xmlns="http://www.w3.org/2000/svg">
<path d="M5.98438 6.26976C5.98438 4.95844 6.93349 3.98438 7.99997 3.98438C8.27611 3.98438 8.49997 3.76052 8.49997 3.48438C8.49997 3.20823 8.27611 2.98438 7.99997 2.98438C6.2878 2.98438 4.98438 4.50443 4.98438 6.26976C4.98438 6.5459 5.20823 6.76976 5.48438 6.76976C5.76052 6.76976 5.98438 6.5459 5.98438 6.26976Z" fill="#111827"/>
<path d="M4.78008 10.2668C3.68838 9.30112 3 7.85675 3 6.25C3 3.37632 5.21345 1 8 1C10.7866 1 13 3.37632 13 6.25C13 7.85675 12.3116 9.30112 11.2199 10.2668L10.6335 13.7491C10.5119 14.4712 9.88662 15 9.15432 15H6.84568C6.11338 15 5.48811 14.4712 5.36651 13.7491L4.78008 10.2668ZM4 6.25C4 7.60626 4.59695 8.80759 5.51856 9.58332C5.62976 9.65712 5.71133 9.77498 5.73524 9.91697L5.98736 11.4141H10.0126L10.2648 9.91697C10.2887 9.77498 10.3702 9.65712 10.4814 9.58333C11.403 8.80759 12 7.60626 12 6.25C12 3.87697 10.184 2 8 2C5.81599 2 4 3.87697 4 6.25ZM6.35262 13.583C6.39316 13.8237 6.60158 14 6.84568 14H9.15432C9.39842 14 9.60684 13.8237 9.64738 13.583L9.84424 12.4141H6.15576L6.35262 13.583Z" fill="#111827"/>
</svg>
