<svg width="32" height="32" viewBox="0 0 32 32" fill="none" xmlns="http://www.w3.org/2000/svg">
<path d="M27 4C27.5523 4 28 3.55228 28 3C28 2.44772 27.5523 2 27 2H5C4.44772 2 4 2.44772 4 3C4 3.55228 4.44772 4 5 4H27Z" fill="#111827"/>
<path d="M27 7C27.5523 7 28 6.55228 28 6C28 5.44772 27.5523 5 27 5H5C4.44772 5 4 5.44772 4 6C4 6.55228 4.44772 7 5 7H27Z" fill="#111827"/>
<path d="M28 9C28 9.55228 27.5523 10 27 10H5C4.44772 10 4 9.55228 4 9C4 8.44772 4.44772 8 5 8H27C27.5523 8 28 8.44772 28 9Z" fill="#111827"/>
<path d="M27 13C27.5523 13 28 12.5523 28 12C28 11.4477 27.5523 11 27 11H5C4.44772 11 4 11.4477 4 12C4 12.5523 4.44772 13 5 13H27Z" fill="#111827"/>
<path d="M28 15C28 15.5523 27.5523 16 27 16H5C4.44772 16 4 15.5523 4 15C4 14.4477 4.44772 14 5 14H27C27.5523 14 28 14.4477 28 15Z" fill="#111827"/>
<path d="M27 19C27.5523 19 28 18.5523 28 18C28 17.4477 27.5523 17 27 17H5C4.44772 17 4 17.4477 4 18C4 18.5523 4.44772 19 5 19H27Z" fill="#111827"/>
<path d="M28 21C28 21.5523 27.5523 22 27 22H5C4.44772 22 4 21.5523 4 21C4 20.4477 4.44772 20 5 20H27C27.5523 20 28 20.4477 28 21Z" fill="#111827"/>
<path d="M27 25C27.5523 25 28 24.5523 28 24C28 23.4477 27.5523 23 27 23H5C4.44772 23 4 23.4477 4 24C4 24.5523 4.44772 25 5 25H27Z" fill="#111827"/>
<path d="M28 26.75C28 28.5449 26.5449 30 24.75 30H7.25C5.45508 30 4 28.5449 4 26.75V26H28V26.75Z" fill="#111827"/>
</svg>
