<svg width="28" height="28" viewBox="0 0 28 28" fill="none" xmlns="http://www.w3.org/2000/svg">
<path d="M15.4079 3.4949C14.5853 2.83503 13.4147 2.83503 12.5921 3.4949L4.84212 9.71164C4.30976 10.1387 4 10.7843 4 11.4667V22.747C4 23.9897 5.00736 24.997 6.25 24.997H8.75C9.99264 24.997 11 23.9897 11 22.747V16.247C11 15.8328 11.3358 15.497 11.75 15.497H17.0323L17.4191 14.0695C17.5302 13.7575 17.7322 13.4858 17.9991 13.2895C18.2766 13.0923 18.6086 12.9863 18.9491 12.9863C19.2895 12.9863 19.6216 13.0923 19.8991 13.2895C20.1711 13.4914 20.3765 13.77 20.4891 14.0895L20.9991 15.6195C21.0981 15.9427 21.2729 16.2376 21.5091 16.4795C21.7384 16.7189 22.0236 16.8976 22.3391 16.9995L23.9291 17.4695C23.953 17.4778 23.9766 17.4867 24 17.4962V11.4667C24 10.7843 23.6902 10.1387 23.1579 9.71164L15.4079 3.4949Z" fill="#111827"/>
<path d="M17.4314 21.1248C17.3511 21.021 17.2641 20.922 17.171 20.8285C16.8241 20.4806 16.4007 20.2185 15.9344 20.0632L14.4035 19.566C14.2855 19.5244 14.1834 19.4473 14.1111 19.3452C14.0388 19.2431 14 19.1212 14 18.9962C14 18.8712 14.0388 18.7492 14.1111 18.6472C14.1834 18.5451 14.2855 18.468 14.4035 18.4264L15.9344 17.9292C16.3942 17.7706 16.811 17.5078 17.1522 17.1615C17.4841 16.8247 17.7358 16.4177 17.8889 15.9708L17.9016 15.9329L18.3991 14.4032C18.4408 14.2853 18.518 14.1832 18.6201 14.111C18.7222 14.0388 18.8443 14 18.9694 14C19.0945 14 19.2165 14.0388 19.3187 14.111C19.4208 14.1832 19.498 14.2853 19.5396 14.4032L20.0372 15.9329C20.1919 16.398 20.453 16.8206 20.7998 17.1671C21.1466 17.5137 21.5696 17.7746 22.035 17.9292L23.5659 18.4264L23.5965 18.434C23.7145 18.4756 23.8166 18.5527 23.8889 18.6548C23.9612 18.7569 24 18.8788 24 19.0038C24 19.1288 23.9612 19.2508 23.8889 19.3528C23.8166 19.4549 23.7145 19.532 23.5965 19.5736L22.0656 20.0708C21.6002 20.2254 21.1773 20.4863 20.8304 20.8329C20.4836 21.1794 20.2225 21.602 20.0678 22.0671L19.5703 23.5968C19.5658 23.6095 19.5609 23.622 19.5556 23.6344C19.5117 23.7364 19.4404 23.8246 19.3493 23.889C19.2472 23.9612 19.1251 24 19 24C18.8749 24 18.7528 23.9612 18.6507 23.889C18.5486 23.8168 18.4714 23.7147 18.4297 23.5968L17.9322 22.0671C17.8198 21.7259 17.6502 21.4074 17.4314 21.1248Z" fill="#111827"/>
<path d="M26.7395 24.6558L25.821 24.3575C25.5417 24.2648 25.288 24.1082 25.0799 23.9003C24.8718 23.6923 24.7151 23.4388 24.6223 23.1598L24.3238 22.2419C24.2988 22.1712 24.2525 22.1099 24.1912 22.0666C24.1299 22.0233 24.0567 22 23.9816 22C23.9066 22 23.8333 22.0233 23.7721 22.0666C23.7108 22.1099 23.6645 22.1712 23.6395 22.2419L23.341 23.1598C23.25 23.4368 23.0961 23.6891 22.8913 23.8969C22.6866 24.1047 22.4365 24.2623 22.1606 24.3575L21.2421 24.6558C21.1713 24.6808 21.11 24.7271 21.0667 24.7883C21.0233 24.8495 21 24.9227 21 24.9977C21 25.0727 21.0233 25.1459 21.0667 25.2071C21.11 25.2684 21.1713 25.3146 21.2421 25.3396L22.1606 25.6379C22.4404 25.7311 22.6945 25.8884 22.9026 26.0971C23.1107 26.3059 23.2671 26.5604 23.3593 26.8402L23.6578 27.7581C23.6828 27.8288 23.7291 27.8901 23.7904 27.9334C23.8517 27.9767 23.9249 28 24 28C24.0751 28 24.1483 27.9767 24.2096 27.9334C24.2709 27.8901 24.3172 27.8288 24.3422 27.7581L24.6407 26.8402C24.7335 26.5612 24.8902 26.3076 25.0983 26.0997C25.3064 25.8918 25.5601 25.7352 25.8394 25.6425L26.7579 25.3442C26.8287 25.3192 26.89 25.2729 26.9333 25.2117C26.9767 25.1505 27 25.0773 27 25.0023C27 24.9273 26.9767 24.8541 26.9333 24.7929C26.89 24.7316 26.8287 24.6854 26.7579 24.6604L26.7395 24.6558Z" fill="#111827"/>
</svg>
