<svg width="28" height="28" viewBox="0 0 28 28" fill="none" xmlns="http://www.w3.org/2000/svg">
<path d="M15.4081 3.49507C14.5854 2.83498 13.4146 2.83498 12.5919 3.49507L4.84191 9.7134C4.30967 10.1404 4 10.786 4 11.4683V22.7487C4 23.9914 5.00736 24.9987 6.25 24.9987H9.25C10.4926 24.9987 11.5 23.9914 11.5 22.7487V16.7487C11.5 16.3345 11.8358 15.9987 12.25 15.9987H16.8344C16.9013 15.8781 16.9565 15.7508 16.9991 15.6185L17.3025 14.4987H12.25C11.0074 14.4987 10 15.5061 10 16.7487V22.7487C10 23.1629 9.66421 23.4987 9.25 23.4987H6.25C5.83579 23.4987 5.5 23.1629 5.5 22.7487V11.4683C5.5 11.2409 5.60322 11.0257 5.78064 10.8834L13.5306 4.66502C13.8049 4.44499 14.1951 4.44499 14.4694 4.66502L22.2194 10.8834C22.3968 11.0257 22.5 11.2409 22.5 11.4683V17.0461L23.9291 17.4685C23.953 17.4769 23.9766 17.4858 24 17.4952V11.4683C24 10.786 23.6903 10.1404 23.1581 9.7134L15.4081 3.49507Z" fill="#111827"/>
<path d="M17.4314 21.1238C17.3511 21.02 17.2641 20.921 17.171 20.8276C16.8241 20.4796 16.4007 20.2175 15.9344 20.0622L14.4035 19.565C14.2855 19.5234 14.1834 19.4463 14.1111 19.3442C14.0388 19.2422 14 19.1202 14 18.9952C14 18.8702 14.0388 18.7482 14.1111 18.6462C14.1834 18.5441 14.2855 18.467 14.4035 18.4254L15.9344 17.9282C16.3942 17.7696 16.811 17.5069 17.1522 17.1605C17.4841 16.8237 17.7358 16.4167 17.8889 15.9698L17.9016 15.932L18.3991 14.4022C18.4408 14.2843 18.518 14.1822 18.6201 14.11C18.7222 14.0378 18.8443 13.999 18.9694 13.999C19.0945 13.999 19.2165 14.0378 19.3187 14.11C19.4208 14.1822 19.498 14.2843 19.5396 14.4022L20.0372 15.932C20.1919 16.397 20.453 16.8196 20.7998 17.1662C21.1466 17.5127 21.5696 17.7736 22.035 17.9282L23.5659 18.4254L23.5965 18.433C23.7145 18.4746 23.8166 18.5518 23.8889 18.6538C23.9612 18.7559 24 18.8778 24 19.0028C24 19.1279 23.9612 19.2498 23.8889 19.3519C23.8166 19.4539 23.7145 19.5311 23.5965 19.5727L22.0656 20.0698C21.6002 20.2244 21.1773 20.4854 20.8304 20.8319C20.4836 21.1784 20.2225 21.601 20.0678 22.0661L19.5703 23.5958C19.5658 23.6085 19.5609 23.6211 19.5556 23.6334C19.5117 23.7354 19.4404 23.8236 19.3493 23.888C19.2472 23.9602 19.1251 23.999 19 23.999C18.8749 23.999 18.7528 23.9602 18.6507 23.888C18.5486 23.8158 18.4714 23.7137 18.4297 23.5958L17.9322 22.0661C17.8198 21.7249 17.6502 21.4064 17.4314 21.1238Z" fill="#111827"/>
<path d="M26.7395 24.6548L25.821 24.3565C25.5417 24.2638 25.288 24.1072 25.0799 23.8993C24.8718 23.6914 24.7151 23.4378 24.6223 23.1588L24.3238 22.241C24.2988 22.1702 24.2525 22.109 24.1912 22.0656C24.1299 22.0223 24.0567 21.999 23.9816 21.999C23.9066 21.999 23.8333 22.0223 23.7721 22.0656C23.7108 22.109 23.6645 22.1702 23.6395 22.241L23.341 23.1588C23.25 23.4359 23.0961 23.6882 22.8913 23.8959C22.6866 24.1037 22.4365 24.2614 22.1606 24.3565L21.2421 24.6548C21.1713 24.6798 21.11 24.7261 21.0667 24.7873C21.0233 24.8485 21 24.9217 21 24.9967C21 25.0717 21.0233 25.1449 21.0667 25.2061C21.11 25.2674 21.1713 25.3137 21.2421 25.3386L22.1606 25.6369C22.4404 25.7301 22.6945 25.8874 22.9026 26.0961C23.1107 26.3049 23.2671 26.5594 23.3593 26.8393L23.6578 27.7571C23.6828 27.8278 23.7291 27.8891 23.7904 27.9324C23.8517 27.9758 23.9249 27.999 24 27.999C24.0751 27.999 24.1483 27.9758 24.2096 27.9324C24.2709 27.8891 24.3172 27.8278 24.3422 27.7571L24.6407 26.8393C24.7335 26.5602 24.8902 26.3067 25.0983 26.0987C25.3064 25.8908 25.5601 25.7343 25.8394 25.6415L26.7579 25.3432C26.8287 25.3183 26.89 25.272 26.9333 25.2107C26.9767 25.1495 27 25.0763 27 25.0013C27 24.9263 26.9767 24.8531 26.9333 24.7919C26.89 24.7307 26.8287 24.6844 26.7579 24.6594L26.7395 24.6548Z" fill="#111827"/>
</svg>
