<svg width="32" height="32" viewBox="0 0 32 32" fill="none" xmlns="http://www.w3.org/2000/svg">
<path d="M15.1904 4.29757C15.6572 3.90081 16.3428 3.90081 16.8096 4.29757L26.5596 12.585C26.839 12.8225 27 13.1707 27 13.5375V18.1588L27.92 18.4995H28.03C28.4115 18.6336 28.7472 18.8713 29 19.185V13.5375C29 12.584 28.5813 11.6787 27.8549 11.0612L18.1049 2.77369C16.8912 1.7421 15.1088 1.7421 13.8952 2.77369L4.14515 11.0612C3.41868 11.6787 3 12.584 3 13.5375V26.497C3 27.8777 4.11929 28.997 5.5 28.997H10.5C11.8807 28.997 13 27.8777 13 26.497V19.497C13 19.2208 13.2239 18.997 13.5 18.997H16.1082C16.3542 18.7419 16.6601 18.5499 17 18.4395L18.64 17.8795C18.9288 17.7841 19.1897 17.6193 19.4 17.3995C19.518 17.2779 19.6204 17.1426 19.7052 16.997H13.5C12.1193 16.997 11 18.1163 11 19.497V26.497C11 26.7731 10.7761 26.997 10.5 26.997H5.5C5.22386 26.997 5 26.7731 5 26.497V13.5375C5 13.1707 5.16103 12.8225 5.44044 12.585L15.1904 4.29757Z" fill="#111827"/>
<path d="M20.7746 22.8372C20.6862 22.7231 20.5905 22.6142 20.4881 22.5114C20.1065 22.1287 19.6407 21.8404 19.1278 21.6695L17.4439 21.1226C17.3141 21.0768 17.2017 20.992 17.1222 20.8797C17.0427 20.7675 17 20.6333 17 20.4958C17 20.3583 17.0427 20.2241 17.1222 20.1119C17.2017 19.9996 17.3141 19.9147 17.4439 19.869L19.1278 19.3221C19.6336 19.1476 20.0921 18.8586 20.4675 18.4777C20.8326 18.1072 21.1094 17.6595 21.2778 17.1679L21.2918 17.1262L21.839 15.4435C21.8848 15.3138 21.9698 15.2015 22.0821 15.1221C22.1944 15.0427 22.3287 15 22.4663 15C22.604 15 22.7382 15.0427 22.8505 15.1221C22.9629 15.2015 23.0478 15.3138 23.0936 15.4435L23.6409 17.1262C23.8111 17.6378 24.0983 18.1026 24.4798 18.4838C24.8613 18.865 25.3265 19.1521 25.8385 19.3221L27.5224 19.869L27.5561 19.8774C27.6859 19.9232 27.7983 20.008 27.8778 20.1203C27.9573 20.2325 28 20.3667 28 20.5042C28 20.6417 27.9573 20.7759 27.8778 20.8881C27.7983 21.0004 27.6859 21.0853 27.5561 21.131L25.8722 21.6779C25.3602 21.8479 24.895 22.135 24.5135 22.5162C24.132 22.8974 23.8448 23.3622 23.6746 23.8738L23.1273 25.5565C23.1223 25.5704 23.1169 25.5842 23.1111 25.5978C23.0629 25.71 22.9845 25.807 22.8842 25.8779C22.7719 25.9573 22.6376 26 22.5 26C22.3624 26 22.2281 25.9573 22.1158 25.8779C22.0034 25.7985 21.9185 25.6862 21.8727 25.5565L21.3254 23.8738C21.2018 23.4985 21.0152 23.1481 20.7746 22.8372Z" fill="#111827"/>
<path d="M30.7395 27.6558L29.821 27.3575C29.5417 27.2648 29.288 27.1082 29.0799 26.9003C28.8718 26.6923 28.7151 26.4388 28.6223 26.1598L28.3238 25.2419C28.2988 25.1712 28.2525 25.1099 28.1912 25.0666C28.1299 25.0233 28.0567 25 27.9816 25C27.9066 25 27.8333 25.0233 27.7721 25.0666C27.7108 25.1099 27.6645 25.1712 27.6395 25.2419L27.341 26.1598C27.25 26.4368 27.0961 26.6891 26.8913 26.8969C26.6866 27.1047 26.4365 27.2623 26.1606 27.3575L25.2421 27.6558C25.1713 27.6808 25.11 27.7271 25.0667 27.7883C25.0233 27.8495 25 27.9227 25 27.9977C25 28.0727 25.0233 28.1459 25.0667 28.2071C25.11 28.2684 25.1713 28.3146 25.2421 28.3396L26.1606 28.6379C26.4404 28.7311 26.6945 28.8884 26.9026 29.0971C27.1107 29.3059 27.2671 29.5604 27.3593 29.8402L27.6578 30.7581C27.6828 30.8288 27.7291 30.8901 27.7904 30.9334C27.8517 30.9767 27.9249 31 28 31C28.0751 31 28.1483 30.9767 28.2096 30.9334C28.2709 30.8901 28.3172 30.8288 28.3422 30.7581L28.6407 29.8402C28.7335 29.5612 28.8902 29.3076 29.0983 29.0997C29.3064 28.8918 29.5601 28.7352 29.8394 28.6425L30.7579 28.3442C30.8287 28.3192 30.89 28.2729 30.9333 28.2117C30.9767 28.1505 31 28.0773 31 28.0023C31 27.9273 30.9767 27.8541 30.9333 27.7929C30.89 27.7316 30.8287 27.6854 30.7579 27.6604L30.7395 27.6558Z" fill="#111827"/>
</svg>
