<svg width="32" height="32" viewBox="0 0 32 32" fill="none" xmlns="http://www.w3.org/2000/svg">
<path d="M13.8952 2.77369C15.1088 1.7421 16.8912 1.7421 18.1049 2.77369L27.8549 11.0612C28.5813 11.6787 29 12.584 29 13.5375V15.9995C28.0878 14.7853 26.6356 14 25 14C22.2396 14 20.0016 16.2369 20 18.997H13.5C13.2239 18.997 13 19.2208 13 19.497V26.497C13 27.8777 11.8807 28.997 10.5 28.997H5.5C4.11929 28.997 3 27.8777 3 26.497V13.5375C3 12.584 3.41868 11.6787 4.14515 11.0612L13.8952 2.77369Z" fill="#111827"/>
<path d="M25 22.5C26.933 22.5 28.5 20.933 28.5 19C28.5 17.067 26.933 15.5 25 15.5C23.067 15.5 21.5 17.067 21.5 19C21.5 20.933 23.067 22.5 25 22.5ZM25 30.5C29.2857 30.5 31 28.461 31 26.4375C31 25.1024 29.9177 24 28.5826 24H21.4174C20.0823 24 19 25.1024 19 26.4375C19 28.4686 20.7143 30.5 25 30.5Z" fill="#111827"/>
</svg>
