<svg width="32" height="32" viewBox="0 0 32 32" fill="none" xmlns="http://www.w3.org/2000/svg">
<path d="M15.1904 4.29757C15.6572 3.90081 16.3428 3.90081 16.8096 4.29757L26.5596 12.585C26.839 12.8225 27 13.1707 27 13.5375V14.416C27.7963 14.7639 28.4844 15.3132 29 15.9995V13.5375C29 12.584 28.5813 11.6787 27.8549 11.0612L18.1049 2.77369C16.8912 1.7421 15.1088 1.7421 13.8952 2.77369L4.14515 11.0612C3.41868 11.6787 3 12.584 3 13.5375V26.497C3 27.8777 4.11929 28.997 5.5 28.997H10.5C11.8807 28.997 13 27.8777 13 26.497V19.497C13 19.2208 13.2239 18.997 13.5 18.997H20C20.0004 18.2858 20.1493 17.6094 20.4174 16.997H13.5C12.1193 16.997 11 18.1163 11 19.497V26.497C11 26.7731 10.7761 26.997 10.5 26.997H5.5C5.22386 26.997 5 26.7731 5 26.497V13.5375C5 13.1707 5.16103 12.8225 5.44044 12.585L15.1904 4.29757Z" fill="#111827"/>
<path d="M25 22.5C26.933 22.5 28.5 20.933 28.5 19C28.5 17.067 26.933 15.5 25 15.5C23.067 15.5 21.5 17.067 21.5 19C21.5 20.933 23.067 22.5 25 22.5ZM25 30.5C29.2857 30.5 31 28.461 31 26.4375C31 25.1024 29.9177 24 28.5826 24H21.4174C20.0823 24 19 25.1024 19 26.4375C19 28.4686 20.7143 30.5 25 30.5Z" fill="#111827"/>
</svg>
