<svg width="28" height="28" viewBox="0 0 28 28" fill="none" xmlns="http://www.w3.org/2000/svg">
<path d="M12.5919 3.49507C13.4146 2.83498 14.5854 2.83498 15.4081 3.49507L23.1581 9.7134C23.6903 10.1404 24 10.786 24 11.4683V13.8763C23.5652 13.5278 23.056 13.2681 22.5 13.125V11.4683C22.5 11.2409 22.3968 11.0257 22.2194 10.8834L14.4694 4.66502C14.1951 4.44499 13.8049 4.44499 13.5306 4.66502L5.78064 10.8834C5.60322 11.0257 5.5 11.2409 5.5 11.4683V22.7487C5.5 23.1629 5.83579 23.4987 6.25 23.4987H9.25C9.66421 23.4987 10 23.1629 10 22.7487V16.7487C10 15.5061 11.0074 14.4987 12.25 14.4987H18.3776C18.0289 14.9335 17.7692 15.4427 17.6261 15.9987H12.25C11.8358 15.9987 11.5 16.3345 11.5 16.7487V22.7487C11.5 23.9914 10.4926 24.9987 9.25 24.9987H6.25C5.00736 24.9987 4 23.9914 4 22.7487V11.4683C4 10.786 4.30967 10.1404 4.84191 9.7134L12.5919 3.49507Z" fill="#111827"/>
<path d="M24.5 16.999C24.5 18.6559 23.1569 19.999 21.5 19.999C19.8431 19.999 18.5 18.6559 18.5 16.999C18.5 15.3422 19.8431 13.999 21.5 13.999C23.1569 13.999 24.5 15.3422 24.5 16.999Z" fill="#111827"/>
<path d="M27 23.249C27 25.1168 25.4286 26.999 21.5 26.999C17.5714 26.9991 16 25.1239 16 23.249V23.0438C16 21.9141 16.9158 20.999 18.0455 20.999H24.9545C26.0842 20.999 27 21.9141 27 23.0438V23.249Z" fill="#111827"/>
</svg>
