<svg width="28" height="28" viewBox="0 0 28 28" fill="none" xmlns="http://www.w3.org/2000/svg">
<path d="M12.5921 3.4949C13.4147 2.83503 14.5853 2.83503 15.4079 3.4949L23.1579 9.71164C23.6902 10.1387 24 10.7843 24 11.4667V13.8773C23.3152 13.3284 22.4459 13 21.5 13C19.8224 13 18.3861 14.0327 17.792 15.497H11.75C11.3358 15.497 11 15.8328 11 16.247V22.747C11 23.9897 9.99264 24.997 8.75 24.997H6.25C5.00736 24.997 4 23.9897 4 22.747V11.4667C4 10.7843 4.30976 10.1387 4.84212 9.71164L12.5921 3.4949Z" fill="#111827"/>
<path d="M24.5 17C24.5 18.6569 23.1569 20 21.5 20C19.8431 20 18.5 18.6569 18.5 17C18.5 15.3431 19.8431 14 21.5 14C23.1569 14 24.5 15.3431 24.5 17Z" fill="#111827"/>
<path d="M27 23.25C27 25.1178 25.4286 27 21.5 27C17.5714 27 16 25.1249 16 23.25V23.0448C16 21.9151 16.9158 21 18.0455 21H24.9545C26.0842 21 27 21.9151 27 23.0448V23.25Z" fill="#111827"/>
</svg>
