<svg width="24" height="24" viewBox="0 0 24 24" fill="none" xmlns="http://www.w3.org/2000/svg">
<path d="M8.25 3C5.35051 3 3 5.3505 3 8.25V18.75C3 19.9926 4.00736 21 5.25 21H12.0218C11.7253 20.5368 11.4858 20.0335 11.3135 19.5H5.25C4.83579 19.5 4.5 19.1642 4.5 18.75V8.25C4.5 6.17893 6.17893 4.5 8.25 4.5H15.75C17.8211 4.5 19.5 6.17893 19.5 8.25V11.3135C20.0335 11.4858 20.5368 11.7253 21 12.0218V8.25C21 5.35051 18.6495 3 15.75 3H8.25Z" fill="#111827"/>
<path d="M11.0417 16.7601C11.0114 16.7564 10.9805 16.7545 10.9492 16.7545C10.535 16.7545 10.1992 17.0902 10.1992 17.5045C10.1992 17.9187 10.535 18.2545 10.9492 18.2545C10.9809 18.2545 11.012 18.2525 11.0427 18.2487C11.0145 18.003 11 17.7532 11 17.5C11 17.2498 11.0141 17.0029 11.0417 16.7601Z" fill="#111827"/>
<path d="M6.75 16.7545C7.16421 16.7545 7.5 17.0902 7.5 17.5045C7.5 17.9187 7.16421 18.2545 6.75 18.2545C6.33579 18.2545 6 17.9187 6 17.5045C6 17.0902 6.33579 16.7545 6.75 16.7545Z" fill="#111827"/>
<path d="M9.59961 17.5045C9.59961 17.0902 9.26382 16.7545 8.84961 16.7545C8.4354 16.7545 8.09961 17.0902 8.09961 17.5045C8.09961 17.9187 8.4354 18.2545 8.84961 18.2545C9.26382 18.2545 9.59961 17.9187 9.59961 17.5045Z" fill="#111827"/>
<path d="M17.5 12C14.4624 12 12 14.4624 12 17.5C12 20.5376 14.4624 23 17.5 23C20.5376 23 23 20.5376 23 17.5C23 14.4624 20.5376 12 17.5 12ZM15.4375 17.5C15.4375 17.8797 15.1297 18.1875 14.75 18.1875C14.3703 18.1875 14.0625 17.8797 14.0625 17.5C14.0625 17.1203 14.3703 16.8125 14.75 16.8125C15.1297 16.8125 15.4375 17.1203 15.4375 17.5ZM18.1875 17.5C18.1875 17.8797 17.8797 18.1875 17.5 18.1875C17.1203 18.1875 16.8125 17.8797 16.8125 17.5C16.8125 17.1203 17.1203 16.8125 17.5 16.8125C17.8797 16.8125 18.1875 17.1203 18.1875 17.5ZM20.9375 17.5C20.9375 17.8797 20.6297 18.1875 20.25 18.1875C19.8703 18.1875 19.5625 17.8797 19.5625 17.5C19.5625 17.1203 19.8703 16.8125 20.25 16.8125C20.6297 16.8125 20.9375 17.1203 20.9375 17.5Z" fill="url(#paint0_linear_7483_43915)"/>
<defs>
<linearGradient id="paint0_linear_7483_43915" x1="12" y1="12" x2="24.3568" y2="13.8279" gradientUnits="userSpaceOnUse">
<stop stop-color="#A7E05F"/>
<stop offset="1" stop-color="#12AB97"/>
</linearGradient>
</defs>
</svg>
