<svg width="24" height="24" viewBox="0 0 24 24" fill="none" xmlns="http://www.w3.org/2000/svg">
<path d="M9.50195 6.24609C9.08774 6.24609 8.75195 5.91031 8.75195 5.49609C8.75195 5.08188 9.08774 4.74609 9.50195 4.74609C9.91617 4.74609 10.252 5.08188 10.252 5.49609C10.252 5.91031 9.91617 6.24609 9.50195 6.24609Z" fill="#111827"/>
<path d="M11.252 5.49609C11.252 5.91031 11.5877 6.24609 12.002 6.24609C12.4162 6.24609 12.752 5.91031 12.752 5.49609C12.752 5.08188 12.4162 4.74609 12.002 4.74609C11.5877 4.74609 11.252 5.08188 11.252 5.49609Z" fill="#111827"/>
<path d="M14.502 6.24609C14.0877 6.24609 13.752 5.91031 13.752 5.49609C13.752 5.08188 14.0877 4.74609 14.502 4.74609C14.9162 4.74609 15.252 5.08188 15.252 5.49609C15.252 5.91031 14.9162 6.24609 14.502 6.24609Z" fill="#111827"/>
<path fill-rule="evenodd" clip-rule="evenodd" d="M15.75 2C16.9926 2 18 3.00736 18 4.25V11H16.5V9.5L7.5 9.5V14.5H11.1525C11.0526 14.7313 11 14.9809 11 15.225C11 15.4868 11.0605 15.7548 11.175 16H7.5V19.75C7.5 20.1642 7.83579 20.5 8.25 20.5H11V21.7625C11 21.8432 11.0043 21.9225 11.0126 22H8.25C7.00736 22 6 20.9926 6 19.75V4.25C6 3.00736 7.00736 2 8.25 2H15.75ZM15.75 3.5H8.25C7.83579 3.5 7.5 3.83579 7.5 4.25V8L16.5 8V4.25C16.5 3.83579 16.1642 3.5 15.75 3.5Z" fill="#111827"/>
<path d="M10.2488 18.5045C10.2488 18.0902 9.91299 17.7545 9.49878 17.7545C9.08457 17.7545 8.74878 18.0902 8.74878 18.5045C8.74878 18.9187 9.08457 19.2545 9.49878 19.2545C9.91299 19.2545 10.2488 18.9187 10.2488 18.5045Z" fill="#111827"/>
<path d="M12.66 12C12.2955 12 12 12.3358 12 12.75C12 13.1642 12.2955 13.5 12.66 13.5H22.34C22.7045 13.5 23 13.1642 23 12.75C23 12.3358 22.7045 12 22.34 12H12.66Z" fill="url(#paint0_linear_7226_56935)"/>
<path d="M12 15.225C12 14.8108 12.2955 14.475 12.66 14.475H22.34C22.7045 14.475 23 14.8108 23 15.225C23 15.6392 22.7045 15.975 22.34 15.975H12.66C12.2955 15.975 12 15.6392 12 15.225Z" fill="url(#paint1_linear_7226_56935)"/>
<path d="M12 21.7625V18.1875C12 17.504 12.6156 16.95 13.375 16.95H17.0417L17.0417 23H13.375C12.6156 23 12 22.4459 12 21.7625Z" fill="url(#paint2_linear_7226_56935)"/>
<path d="M17.9583 23H21.625C22.3844 23 23 22.4459 23 21.7625V18.1875C23 17.504 22.3844 16.95 21.625 16.95H17.9583L17.9583 23Z" fill="url(#paint3_linear_7226_56935)"/>
<defs>
<linearGradient id="paint0_linear_7226_56935" x1="12" y1="12" x2="24.3568" y2="13.8279" gradientUnits="userSpaceOnUse">
<stop stop-color="#3499FF"/>
<stop offset="1" stop-color="#3A3985"/>
</linearGradient>
<linearGradient id="paint1_linear_7226_56935" x1="12" y1="12" x2="24.3568" y2="13.8279" gradientUnits="userSpaceOnUse">
<stop stop-color="#3499FF"/>
<stop offset="1" stop-color="#3A3985"/>
</linearGradient>
<linearGradient id="paint2_linear_7226_56935" x1="12" y1="12" x2="24.3568" y2="13.8279" gradientUnits="userSpaceOnUse">
<stop stop-color="#3499FF"/>
<stop offset="1" stop-color="#3A3985"/>
</linearGradient>
<linearGradient id="paint3_linear_7226_56935" x1="12" y1="12" x2="24.3568" y2="13.8279" gradientUnits="userSpaceOnUse">
<stop stop-color="#3499FF"/>
<stop offset="1" stop-color="#3A3985"/>
</linearGradient>
</defs>
</svg>
