<svg width="32" height="32" viewBox="0 0 32 32" fill="none" xmlns="http://www.w3.org/2000/svg">
<path d="M16 16C16 14.3431 17.3431 13 19 13H23C24.6569 13 26 14.3431 26 16C26 17.6569 24.6569 19 23 19H19C17.3431 19 16 17.6569 16 16Z" fill="#111827"/>
<path d="M9 9C5.13401 9 2 12.134 2 16C2 19.866 5.13401 23 9 23H23C26.866 23 30 19.866 30 16C30 12.134 26.866 9 23 9H9ZM4 16C4 13.2386 6.23858 11 9 11H23C25.7614 11 28 13.2386 28 16C28 18.7614 25.7614 21 23 21H9C6.23858 21 4 18.7614 4 16Z" fill="#111827"/>
</svg>
