<svg width="24" height="24" viewBox="0 0 24 24" fill="none" xmlns="http://www.w3.org/2000/svg">
<path d="M14.5893 9.5H16.6607C18.0907 9.5 19.25 10.6193 19.25 12C19.25 13.3807 18.0907 14.5 16.6607 14.5H14.5893C13.1593 14.5 12 13.3807 12 12C12 10.6193 13.1593 9.5 14.5893 9.5Z" fill="#111827"/>
<path d="M17 7C19.7614 7 22 9.23858 22 12C22 14.7614 19.7614 17 17 17H7C4.23858 17 2 14.7614 2 12C2 9.23858 4.23858 7 7 7H17ZM20.5 12C20.5 10.067 18.933 8.5 17 8.5H7C5.067 8.5 3.5 10.067 3.5 12C3.5 13.933 5.067 15.5 7 15.5H17C18.933 15.5 20.5 13.933 20.5 12Z" fill="#111827"/>
</svg>
