<svg width="48" height="48" viewBox="0 0 48 48" fill="none" xmlns="http://www.w3.org/2000/svg">
<path d="M29 19C26.2386 19 24 21.2386 24 24C24 26.7614 26.2386 29 29 29H33.5C36.2614 29 38.5 26.7614 38.5 24C38.5 21.2386 36.2614 19 33.5 19H29Z" fill="#111827"/>
<path d="M14 14C8.47715 14 4 18.4772 4 24C4 29.5228 8.47715 34 14 34H34C39.5228 34 44 29.5228 44 24C44 18.4772 39.5228 14 34 14H14ZM6.5 24C6.5 19.8579 9.85786 16.5 14 16.5H34C38.1421 16.5 41.5 19.8579 41.5 24C41.5 28.1421 38.1421 31.5 34 31.5H14C9.85786 31.5 6.5 28.1421 6.5 24Z" fill="#111827"/>
</svg>
