<svg width="24" height="24" viewBox="0 0 24 24" fill="none" xmlns="http://www.w3.org/2000/svg">
<path d="M10 2C11.733 2 13.1492 3.35645 13.2449 5.06546L13.25 5.24987L13.2509 12.581C12.7473 13.0164 12.3112 13.5279 11.9606 14.0976L11.7515 13.9451L11.75 5.25C11.75 4.2835 10.9665 3.5 10 3.5C9.08183 3.5 8.32881 4.20711 8.2558 5.10651L8.25 5.25004L8.24954 13.9445L7.94128 14.1691C7.04185 14.8246 6.5 15.8664 6.5 17C6.5 18.933 8.067 20.5 10 20.5C10.5592 20.5 11.0877 20.3689 11.5566 20.1357C11.7618 20.5978 12.0194 21.0316 12.3217 21.4294C11.628 21.7938 10.8381 22 10 22C7.23858 22 5 19.7614 5 17C5 15.6373 5.5496 14.3655 6.48922 13.4396L6.66993 13.2701L6.749 13.202L6.75 5.25C6.75 3.57886 8.0113 2.20232 9.63385 2.0204L9.81558 2.00514L10 2Z" fill="white"/>
<path d="M10.7506 14.6146C11.023 14.7003 11.2753 14.8313 11.4987 14.9988C11.1774 15.7687 11 16.6136 11 17.5C11 18.0819 11.0765 18.646 11.2199 19.1827C10.8591 19.3848 10.443 19.5 10 19.5C8.61929 19.5 7.5 18.3807 7.5 17C7.5 15.8804 8.23593 14.9328 9.25042 14.6143L9.25 8.75C9.25 8.33579 9.58579 8 10 8C10.4142 8 10.75 8.33579 10.75 8.75L10.7506 14.6146Z" fill="white"/>
<path d="M23 17.5C23 20.5376 20.5376 23 17.5 23C14.4624 23 12 20.5376 12 17.5C12 14.4624 14.4624 12 17.5 12C20.5376 12 23 14.4624 23 17.5ZM13.5 17.5C13.5 19.7091 15.2909 21.5 17.5 21.5C19.7091 21.5 21.5 19.7091 21.5 17.5C21.5 15.2909 19.7091 13.5 17.5 13.5C15.2909 13.5 13.5 15.2909 13.5 17.5Z" fill="white"/>
</svg>
