<svg width="24" height="24" viewBox="0 0 24 24" fill="none" xmlns="http://www.w3.org/2000/svg">
<path d="M10 2C12.1422 2 13.8911 3.68397 13.9951 5.8002L14 5.99982L14.0009 12.0212C13.2886 12.4771 12.6711 13.068 12.1846 13.7579L12.0014 13.5938L12 6C12 4.89543 11.1046 4 10 4C8.94564 4 8.08183 4.81588 8.00549 5.85077L8 6.00004L7.99971 13.5931L7.6667 13.8912C6.92863 14.5519 6.5 15.4902 6.5 16.5C6.5 18.433 8.067 20 10 20C10.4927 20 10.9617 19.8982 11.387 19.7144C11.6183 20.3528 11.9467 20.9446 12.3544 21.472C11.6407 21.8106 10.8425 22 10 22C6.96243 22 4.5 19.5376 4.5 16.5C4.5 15.195 4.95792 13.9622 5.76605 12.989L5.94454 12.7845L5.999 12.727L6 6C6 3.92691 7.57708 2.22216 9.59694 2.02006L9.80036 2.0049L10 2Z" fill="#111827"/>
<path d="M11.0008 14.2084C11.2447 14.315 11.4683 14.4595 11.6642 14.6343C11.2389 15.4988 11 16.4715 11 17.5C11 17.923 11.0404 18.3365 11.1175 18.7369C10.7812 18.9053 10.4017 19 10 19C8.61929 19 7.5 17.8807 7.5 16.5C7.5 15.4748 8.11713 14.5937 9.00017 14.2079L9 9C9 8.44772 9.44772 8 10 8C10.5523 8 11 8.44772 11 9L11.0008 14.2084Z" fill="#111827"/>
<path d="M23 17.5C23 20.5376 20.5376 23 17.5 23C14.4624 23 12 20.5376 12 17.5C12 14.4624 14.4624 12 17.5 12C20.5376 12 23 14.4624 23 17.5Z" fill="#111827"/>
</svg>
