<svg width="127" height="28" viewBox="0 0 127 28" fill="none" xmlns="http://www.w3.org/2000/svg">
<path d="M8.62771 7.42817C9.76827 8.3542 11.1412 9.00135 12.6465 9.27309V1.41074L14.2483 0.488281L15.8501 1.41074V9.27309C17.3553 9.00135 18.7283 8.35063 19.8688 7.42817L22.7828 9.11219C20.5911 11.2789 17.577 12.6197 14.2483 12.6197C10.9196 12.6197 7.90547 11.2825 5.71374 9.11219L8.62771 7.42817ZM12.1602 27.5077C12.9432 24.5258 12.5928 21.2436 10.9303 18.3618C9.26771 15.48 6.60045 13.5386 3.6257 12.7234V16.0878C4.99866 16.6134 6.24648 17.4787 7.23329 18.6478L0.422119 22.5808V24.4293L2.02391 25.3517L8.83508 21.4188C9.35352 22.8597 9.47508 24.3721 9.24625 25.8237L12.1602 27.5077ZM24.8673 12.7269C21.8925 13.5421 19.2253 15.4836 17.5627 18.3654C15.9001 21.2472 15.5497 24.5258 16.3327 27.5113L19.2467 25.8273C19.0179 24.3757 19.143 22.8633 19.6579 21.4224L26.4691 25.3553L28.0708 24.4329V22.5844L21.2597 18.6514C22.2465 17.4858 23.4979 16.6206 24.8673 16.0914V12.7269ZM77.9837 9.11219H79.5605V22.5808H77.9837V19.9457C76.8217 21.7048 74.8945 22.849 72.5562 22.849C68.6876 22.849 65.552 19.7133 65.552 15.8447C65.552 11.9761 68.6876 8.84046 72.5562 8.84046C74.891 8.84046 76.8217 9.98459 77.9837 11.7437V9.10862V9.11219ZM77.9837 15.8483C77.9837 12.8449 75.5596 10.4208 72.5562 10.4208C69.5529 10.4208 67.1287 12.8449 67.1287 15.8483C67.1287 18.8516 69.5529 21.2758 72.5562 21.2758C75.5596 21.2758 77.9837 18.8516 77.9837 15.8483ZM96.4936 4.5142L94.9169 5.41878V9.11219H86.8936V4.5142L85.3169 5.41878V9.11219H83.2002V10.6317H85.3169V19.5024C85.3169 21.215 86.6648 22.5808 88.3774 22.5808H90.7265V21.004H88.3774C87.5694 21.004 86.8972 20.3319 86.8972 19.4845V10.6317H94.9205V19.5024C94.9205 21.215 96.2684 22.5808 97.9596 22.5808H100.326V21.004H97.9596C97.1694 21.004 96.4972 20.3319 96.4972 19.4845V10.6317H100.326V9.11219H96.4972V4.5142H96.4936ZM60.625 14.5969V22.5808H62.2018V14.5969C62.2018 11.2431 59.6275 8.84404 56.449 8.84404C54.3895 8.84404 52.5124 9.90236 51.4755 12.0583C50.4172 9.92381 48.5616 8.84404 46.52 8.84404C43.3415 8.84404 40.7672 11.2431 40.7672 14.5969V22.5808H42.3439V14.5969C42.3439 12.112 44.2139 10.4208 46.52 10.4208C48.8262 10.4208 50.6961 12.112 50.6961 14.5969V22.5808H52.2729V14.5969C52.2729 12.112 54.1428 10.4208 56.449 10.4208C58.7551 10.4208 60.625 12.112 60.625 14.5969ZM125.798 10.4208H126.395V8.84404H125.798C122.619 8.84404 120.045 11.2431 120.045 14.5969V22.5808H121.622V14.5969C121.622 12.112 123.492 10.4208 125.798 10.4208ZM116.716 15.8483C116.716 16.002 116.698 16.1736 116.698 16.331H104.213C104.467 19.1055 106.891 21.2758 110.041 21.2758C111.986 21.2758 113.523 20.4498 114.524 19.177L115.908 19.9672C114.617 21.7191 112.562 22.8525 110.041 22.8525C105.847 22.8525 102.711 19.7169 102.711 15.8483C102.711 11.9797 105.847 8.84404 109.716 8.84404C113.584 8.84404 116.72 11.9797 116.72 15.8483H116.716ZM104.292 14.8078H115.129C114.625 12.305 112.34 10.4208 109.708 10.4208C107.077 10.4208 104.789 12.305 104.288 14.8078H104.292Z" fill="#111827"/>
</svg>
