<svg width="25" height="24" viewBox="0 0 25 24" fill="none" xmlns="http://www.w3.org/2000/svg">
<path d="M4.20699 2C3.26559 2 2.50244 2.76315 2.50244 3.70455V8C2.50244 10.9738 4.66591 13.4423 7.50478 13.9174C7.5207 12.2669 8.03646 10.7359 8.90796 9.46863L6.71966 7.28033C6.42677 6.98744 6.42677 6.51256 6.71966 6.21967C7.01255 5.92678 7.48743 5.92678 7.78032 6.21967L9.87384 8.31319C11.0261 7.17145 12.5238 6.37772 14.1963 6.10264C13.4023 3.7188 11.1531 2 8.50244 2H4.20699ZM10.0539 18.3868L7.71983 20.7195C7.42685 21.0123 7.42671 21.4871 7.71951 21.7801C8.01232 22.0731 8.48719 22.0733 8.78017 21.7804L11.1146 19.4474C12.3152 20.4154 13.8421 20.9949 15.5044 20.9949C19.3696 20.9949 22.5031 17.8615 22.5031 13.9962V8.74756C22.5031 7.78106 21.7196 6.99756 20.7531 6.99756H15.5044C11.6391 6.99756 8.50569 10.131 8.50569 13.9962C8.50569 15.6589 9.08547 17.1861 10.0539 18.3868ZM16.2802 14.285L12.1849 18.3803C11.7848 18.0769 11.4275 17.72 11.1237 17.3202L15.2195 13.2243C15.5124 12.9314 15.9873 12.9314 16.2802 13.2243C16.5731 13.5172 16.5731 13.9921 16.2802 14.285Z" fill="#1470CC"/>
</svg>
