<svg width="25" height="24" viewBox="0 0 25 24" fill="none" xmlns="http://www.w3.org/2000/svg">
<path d="M2.50244 4.70455V9C2.50244 12.3137 5.18873 15 8.50244 15C8.60042 15 8.69784 14.9977 8.79467 14.993C9.05723 15.8766 9.48958 16.6872 10.0539 17.3868L7.72374 19.7156C7.43075 20.0084 7.43061 20.4833 7.72342 20.7763C8.01622 21.0692 8.49109 21.0694 8.78408 20.7766L11.1146 18.4474C12.3152 19.4154 13.8421 19.9949 15.5044 19.9949C19.3696 19.9949 22.5031 16.8615 22.5031 12.9962V7.74756C22.5031 6.78106 21.7196 5.99756 20.7531 5.99756L15.5044 5.99756C14.9209 5.99756 14.3541 6.06896 13.8123 6.2035C12.8069 4.29847 10.8063 3 8.50244 3H4.20699C3.26559 3 2.50244 3.76315 2.50244 4.70455ZM12.1835 17.3792L16.2801 13.2851C16.5731 12.9923 16.5732 12.5174 16.2804 12.2244C15.9876 11.9314 15.5128 11.9313 15.2198 12.2241L11.1226 16.3188C10.4217 15.3958 10.0057 14.2446 10.0057 12.9962C10.0057 9.9594 12.4675 7.49756 15.5044 7.49756H20.7531C20.8911 7.49756 21.0031 7.60949 21.0031 7.74756V12.9962C21.0031 16.0331 18.5412 18.4949 15.5044 18.4949C14.2567 18.4949 13.1062 18.0794 12.1835 17.3792ZM8.50244 4.5C10.159 4.5 11.6065 5.39514 12.3877 6.72812C11.2891 7.27543 10.3546 8.10307 9.67802 9.11737L7.78032 7.21967C7.48743 6.92678 7.01255 6.92678 6.71966 7.21967C6.42677 7.51256 6.42677 7.98744 6.71966 8.28033L8.95718 10.5179C8.6654 11.2883 8.50569 12.1236 8.50569 12.9962C8.50569 13.1656 8.51171 13.3336 8.52354 13.5L8.50244 13.5C6.01716 13.5 4.00244 11.4853 4.00244 9L4.00244 4.70455C4.00244 4.59158 4.09402 4.5 4.20699 4.5L8.50244 4.5Z" fill="#6B7280"/>
</svg>
