<svg width="20" height="20" viewBox="0 0 20 20" fill="none" xmlns="http://www.w3.org/2000/svg">
<path d="M9.25796 2.11217C9.37426 2.01724 9.52681 1.98045 9.67304 2.01206L16.6059 3.51084C16.8343 3.56021 16.9975 3.76396 16.9975 3.99976V9.59825C16.6836 9.43796 16.3522 9.30695 16.007 9.20881V4.40404L10.0646 3.11938V11.2467C9.56543 11.9261 9.21864 12.7244 9.07456 13.5913L9.0741 2.50098C9.0741 2.35 9.14167 2.2071 9.25796 2.11217Z" fill="#111827"/>
<path d="M7.99988 16.9974H3.49805C3.2219 16.9974 2.99805 16.7735 2.99805 16.4974V3.50208C2.99805 3.22593 3.2219 3.00208 3.49805 3.00208H7.99988V4.00208H3.99805V15.9974H7.99988V16.9974Z" fill="#111827"/>
<path fill-rule="evenodd" clip-rule="evenodd" d="M12.0652 11.4418C12.3685 12.523 11.7225 13.6419 10.6346 13.9198L10.1735 14.0376C10.1586 14.1895 10.1509 14.3437 10.1509 14.4997C10.1509 14.6874 10.162 14.8724 10.1835 15.054L10.5331 15.1366C11.6525 15.4013 12.3185 16.5534 11.9892 17.6556L11.8628 18.0784C12.12 18.2816 12.3998 18.4558 12.6975 18.5963L13.0225 18.2522C13.8123 17.4159 15.1431 17.4166 15.932 18.2537L16.2694 18.6117C16.5618 18.4767 16.8372 18.3094 17.0912 18.114L16.9351 17.5574C16.6318 16.4762 17.2778 15.3573 18.3657 15.0794L18.8263 14.9618C18.8412 14.8099 18.8489 14.6557 18.8489 14.4997C18.8489 14.312 18.8378 14.1269 18.8162 13.9451L18.4672 13.8626C17.3478 13.5979 16.6818 12.4458 17.0111 11.3436L17.1373 10.9214C16.8801 10.7181 16.6003 10.5438 16.3025 10.4033L15.9778 10.7471C15.188 11.5834 13.8572 11.5827 13.0683 10.7455L12.7309 10.3876C12.4385 10.5225 12.1631 10.6898 11.909 10.8851L12.0652 11.4418ZM14.4999 15.4997C15.0522 15.4997 15.4999 15.052 15.4999 14.4997C15.4999 13.9475 15.0522 13.4997 14.4999 13.4997C13.9476 13.4997 13.4999 13.9475 13.4999 14.4997C13.4999 15.052 13.9476 15.4997 14.4999 15.4997Z" fill="#111827"/>
</svg>
