<svg width="20" height="20" viewBox="0 0 20 20" fill="none" xmlns="http://www.w3.org/2000/svg">
<path d="M9.25809 2.11242C9.37438 2.01749 9.52693 1.9807 9.67316 2.01231L16.6061 3.51109C16.8344 3.56046 16.9976 3.76421 16.9976 4V9.59849C16.6837 9.43821 16.3523 9.30719 16.0071 9.20905V4.40428L10.0647 3.11963V11.247C9.56556 11.9264 9.21876 12.7247 9.07468 13.5915L9.07422 2.50122C9.07422 2.35024 9.1418 2.20734 9.25809 2.11242Z" fill="#1470CC"/>
<path d="M8 16.9976H3.49817C3.22203 16.9976 2.99817 16.7738 2.99817 16.4976V3.50232C2.99817 3.22618 3.22203 3.00232 3.49817 3.00232H8V4.00232H3.99817V15.9976H8V16.9976Z" fill="#1470CC"/>
<path fill-rule="evenodd" clip-rule="evenodd" d="M12.0654 11.4421C12.3686 12.5232 11.7226 13.6421 10.6347 13.92L10.1737 14.0378C10.1587 14.1898 10.151 14.3439 10.151 14.5C10.151 14.6876 10.1621 14.8726 10.1837 15.0542L10.5332 15.1369C11.6527 15.4016 12.3186 16.5537 11.9893 17.6558L11.863 18.0786C12.1201 18.2819 12.3999 18.4561 12.6976 18.5965L13.0226 18.2524C13.8124 17.4161 15.1432 17.4168 15.9321 18.2539L16.2695 18.6119C16.5619 18.477 16.8373 18.3096 17.0913 18.1143L16.9352 17.5576C16.6319 16.4765 17.2779 15.3576 18.3658 15.0797L18.8264 14.962C18.8414 14.8101 18.849 14.656 18.849 14.5C18.849 14.3122 18.8379 14.1271 18.8163 13.9454L18.4673 13.8628C17.3479 13.5982 16.6819 12.446 17.0112 11.3439L17.1374 10.9216C16.8802 10.7183 16.6004 10.544 16.3026 10.4035L15.9779 10.7473C15.1881 11.5836 13.8574 11.5829 13.0684 10.7458L12.7311 10.3878C12.4386 10.5227 12.1633 10.69 11.9092 10.8853L12.0654 11.4421ZM14.5 15.5C15.0523 15.5 15.5 15.0523 15.5 14.5C15.5 13.9477 15.0523 13.5 14.5 13.5C13.9477 13.5 13.5 13.9477 13.5 14.5C13.5 15.0523 13.9477 15.5 14.5 15.5Z" fill="#1470CC"/>
</svg>
