<svg width="24" height="24" viewBox="0 0 24 24" fill="none" xmlns="http://www.w3.org/2000/svg">
<path d="M3.675 2H20.325C20.6978 2 21 2.33579 21 2.75C21 3.16421 20.6978 3.5 20.325 3.5H3.675C3.30221 3.5 3 3.16421 3 2.75C3 2.33579 3.30221 2 3.675 2Z" fill="#111827"/>
<path d="M3 13.25V19.75C3 20.9926 4.00736 22 5.25 22H18.75C19.9926 22 21 20.9926 21 19.75V13.25C21 12.0074 19.9926 11 18.75 11H5.25C4.00736 11 3 12.0074 3 13.25ZM5.25 12.5H11.25V20.5H5.25C4.83579 20.5 4.5 20.1642 4.5 19.75V13.25C4.5 12.8358 4.83579 12.5 5.25 12.5ZM18.75 20.5H12.75V12.5H18.75C19.1642 12.5 19.5 12.8358 19.5 13.25V19.75C19.5 20.1642 19.1642 20.5 18.75 20.5Z" fill="#111827"/>
<path d="M3 5.75C3 5.33579 3.30221 5 3.675 5H20.325C20.6978 5 21 5.33579 21 5.75C21 6.16421 20.6978 6.5 20.325 6.5H3.675C3.30221 6.5 3 6.16421 3 5.75Z" fill="#111827"/>
<path d="M3.675 8H20.325C20.6978 8 21 8.33579 21 8.75C21 9.16421 20.6978 9.5 20.325 9.5H3.675C3.30221 9.5 3 9.16421 3 8.75C3 8.33579 3.30221 8 3.675 8Z" fill="#111827"/>
</svg>
