<svg width="16" height="16" viewBox="0 0 16 16" fill="none" xmlns="http://www.w3.org/2000/svg">
<path d="M2 1.5C2 1.22386 2.22386 1 2.5 1H13.5C13.7761 1 14 1.22386 14 1.5C14 1.77614 13.7761 2 13.5 2H2.5C2.22386 2 2 1.77614 2 1.5Z" fill="#111827"/>
<path d="M2 8.5C2 7.67157 2.67157 7 3.5 7H12.5C13.3284 7 14 7.67157 14 8.5V13.5C14 14.3284 13.3284 15 12.5 15H3.5C2.67157 15 2 14.3284 2 13.5V8.5ZM8.5 14H12.5C12.7761 14 13 13.7761 13 13.5V8.5C13 8.22386 12.7761 8 12.5 8H8.5L8.5 14ZM7.5 8H3.5C3.22386 8 3 8.22386 3 8.5V13.5C3 13.7761 3.22386 14 3.5 14H7.5L7.5 8Z" fill="#111827"/>
<path d="M2.5 3C2.22386 3 2 3.22386 2 3.5C2 3.77614 2.22386 4 2.5 4H13.5C13.7761 4 14 3.77614 14 3.5C14 3.22386 13.7761 3 13.5 3H2.5Z" fill="#111827"/>
<path d="M2 5.5C2 5.22386 2.22386 5 2.5 5H13.5C13.7761 5 14 5.22386 14 5.5C14 5.77614 13.7761 6 13.5 6H2.5C2.22386 6 2 5.77614 2 5.5Z" fill="#111827"/>
</svg>
