<svg width="48" height="48" viewBox="0 0 48 48" fill="none" xmlns="http://www.w3.org/2000/svg">
<path d="M39.75 6.5C40.4404 6.5 41 5.94036 41 5.25C41 4.55965 40.4404 4 39.75 4L8.25 4C7.55964 4 7 4.55964 7 5.25C7 5.94036 7.55964 6.5 8.25 6.5L39.75 6.5Z" fill="#111827"/>
<path d="M7 26.25C7 23.9028 8.90279 22 11.25 22H36.75C39.0972 22 41 23.9028 41 26.25V39.75C41 42.0972 39.0972 44 36.75 44H11.25C8.90279 44 7 42.0972 7 39.75V26.25ZM11.25 24.5C10.2835 24.5 9.5 25.2835 9.5 26.25V39.75C9.5 40.7165 10.2835 41.5 11.25 41.5H22.75L22.75 24.5H11.25ZM36.75 41.5C37.7165 41.5 38.5 40.7165 38.5 39.75V26.25C38.5 25.2835 37.7165 24.5 36.75 24.5H25.25V41.5H36.75Z" fill="#111827"/>
<path d="M41 11.25C41 11.9404 40.4404 12.5 39.75 12.5L8.25 12.5C7.55964 12.5 7 11.9404 7 11.25C7 10.5596 7.55964 10 8.25 10L39.75 10C40.4404 10 41 10.5596 41 11.25Z" fill="#111827"/>
<path d="M39.75 18.5C40.4404 18.5 41 17.9404 41 17.25C41 16.5596 40.4404 16 39.75 16L8.25 16C7.55964 16 7 16.5596 7 17.25C7 17.9404 7.55964 18.5 8.25 18.5L39.75 18.5Z" fill="#111827"/>
</svg>
