<svg width="32" height="32" viewBox="0 0 32 32" fill="none" xmlns="http://www.w3.org/2000/svg">
<path d="M27 4C27.5523 4 28 3.55228 28 3C28 2.44772 27.5523 2 27 2H5C4.44772 2 4 2.44772 4 3C4 3.55228 4.44772 4 5 4H27Z" fill="#111827"/>
<path d="M28 7.33301C28 7.88529 27.5523 8.33301 27 8.33301H5C4.44772 8.33301 4 7.88529 4 7.33301C4 6.78072 4.44772 6.33301 5 6.33301H27C27.5523 6.33301 28 6.78072 28 7.33301Z" fill="#111827"/>
<path d="M27 12.666C27.5523 12.666 28 12.2183 28 11.666C28 11.1137 27.5523 10.666 27 10.666H5C4.44772 10.666 4 11.1137 4 11.666C4 12.2183 4.44772 12.666 5 12.666H27Z" fill="#111827"/>
<path d="M4 18.25C4 16.4551 5.45507 15 7.25 15H24.75C26.5449 15 28 16.4551 28 18.25V26.75C28 28.5449 26.5449 30 24.75 30H7.25C5.45508 30 4 28.5449 4 26.75V18.25ZM7.25 17C6.55964 17 6 17.5596 6 18.25V26.75C6 27.4404 6.55964 28 7.25 28H15L15 17H7.25ZM24.75 28C25.4404 28 26 27.4404 26 26.75V18.25C26 17.5596 25.4404 17 24.75 17H17L17 28H24.75Z" fill="#111827"/>
</svg>
