<svg width="24" height="24" viewBox="0 0 24 24" fill="none" xmlns="http://www.w3.org/2000/svg">
<path d="M8.25 3C5.35051 3 3 5.3505 3 8.25V18.75C3 19.9926 4.00736 21 5.25 21H14.1929L13.8425 19.715C13.7741 19.6453 13.7076 19.5736 13.6432 19.5H5.25C4.83579 19.5 4.5 19.1642 4.5 18.75V8.25C4.5 6.17893 6.17893 4.5 8.25 4.5H15.75C17.8211 4.5 19.5 6.17893 19.5 8.25V11.4049C20.0574 11.6414 20.5643 11.9737 21 12.3812V8.25C21 5.35051 18.6495 3 15.75 3H8.25Z" fill="#111827"/>
<path d="M6.75 16.7545C7.16421 16.7545 7.5 17.0902 7.5 17.5045C7.5 17.9187 7.16421 18.2545 6.75 18.2545C6.33579 18.2545 6 17.9187 6 17.5045C6 17.0902 6.33579 16.7545 6.75 16.7545Z" fill="#111827"/>
<path d="M9.59961 17.5045C9.59961 17.0902 9.26382 16.7545 8.84961 16.7545C8.4354 16.7545 8.09961 17.0902 8.09961 17.5045C8.09961 17.9187 8.4354 18.2545 8.84961 18.2545C9.26382 18.2545 9.59961 17.9187 9.59961 17.5045Z" fill="#111827"/>
<path d="M10.9492 16.7545C11.3634 16.7545 11.6992 17.0902 11.6992 17.5045C11.6992 17.9187 11.3634 18.2545 10.9492 18.2545C10.535 18.2545 10.1992 17.9187 10.1992 17.5045C10.1992 17.0902 10.535 16.7545 10.9492 16.7545Z" fill="#111827"/>
<path d="M17.5 12C15.2218 12 13.375 13.8468 13.375 16.125C13.375 17.2763 13.8473 18.3182 14.6076 19.066C14.6962 19.1532 14.7504 19.2434 14.7736 19.3283L15.0249 20.25H19.9751L20.2264 19.3283C20.2496 19.2434 20.3038 19.1532 20.3924 19.066C21.1527 18.3182 21.625 17.2763 21.625 16.125C21.625 13.8468 19.7782 12 17.5 12ZM19.7251 21.1667H15.2749L15.4986 21.9868C15.6617 22.585 16.2051 23 16.8251 23H18.1749C18.7949 23 19.3383 22.585 19.5014 21.9868L19.7251 21.1667Z" fill="url(#paint0_linear_7230_56952)"/>
<defs>
<linearGradient id="paint0_linear_7230_56952" x1="13.375" y1="12" x2="22.7303" y2="13.0379" gradientUnits="userSpaceOnUse">
<stop stop-color="#FFCF1B"/>
<stop offset="1" stop-color="#FF881B"/>
</linearGradient>
</defs>
</svg>
