<svg width="32" height="32" viewBox="0 0 32 32" fill="none" xmlns="http://www.w3.org/2000/svg">
<path d="M8 12C8 7.58172 11.5817 4 16 4C20.4183 4 24 7.58172 24 12C24 12.7015 23.9098 13.3818 23.7404 14.03C24.4199 14.0853 25.0781 14.2162 25.7065 14.4141C25.8982 13.6409 26 12.8323 26 12C26 6.47715 21.5228 2 16 2C10.4772 2 6 6.47715 6 12C6 14.9771 7.30225 17.6514 9.36493 19.4818C9.7078 19.7861 9.92612 20.1271 10.0049 20.4685L11.5784 27.287C11.9449 28.8751 13.359 30 14.9888 30H17.0112C17.1169 30 17.2217 29.9953 17.3254 29.986C16.6279 29.4187 16.017 28.7491 15.5155 28H14.9888C14.2903 28 13.6843 27.5179 13.5272 26.8373L13.1032 25H14.223C14.0771 24.3568 14 23.6874 14 23H12.6417L11.9537 20.0188C11.7587 19.1737 11.2604 18.4899 10.6924 17.9859C9.03933 16.519 8 14.3815 8 12Z" fill="#111827"/>
<path d="M30.5 23C30.5 27.1421 27.1421 30.5 23 30.5C18.8579 30.5 15.5 27.1421 15.5 23C15.5 18.8579 18.8579 15.5 23 15.5C27.1421 15.5 30.5 18.8579 30.5 23ZM23 17.75C22.5858 17.75 22.25 18.0858 22.25 18.5V19.5988C21.2357 19.9174 20.5 20.865 20.5 21.9844C20.5 23.1038 21.2357 24.0514 22.25 24.3699V27.5C22.25 27.9142 22.5858 28.25 23 28.25C23.4142 28.25 23.75 27.9142 23.75 27.5V24.3699C24.7643 24.0514 25.5 23.1038 25.5 21.9844C25.5 20.865 24.7643 19.9174 23.75 19.5988V18.5C23.75 18.0858 23.4142 17.75 23 17.75Z" fill="#111827"/>
</svg>
