<svg width="24" height="24" viewBox="0 0 24 24" fill="none" xmlns="http://www.w3.org/2000/svg">
<path d="M17.5 11C18.0112 11 18.5086 11.059 18.9858 11.1706C19.1615 10.5484 19.25 9.90842 19.25 9.2514C19.25 5.24734 16.0041 2.0014 12 2.0014C7.99593 2.0014 4.75 5.24734 4.75 9.2514C4.75 11.388 5.68616 13.3447 7.51701 15.0922C7.55234 15.1259 7.57702 15.1692 7.58801 15.2168L8.114 17.4994H11C11.0003 13.9098 13.9103 11 17.5 11Z" fill="#111827"/>
<path d="M12.8096 22C12.02 21.1772 11.4448 20.1471 11.1738 18.9994H8.461L8.75135 20.2563L8.79678 20.4236C9.0885 21.3551 9.95426 22 10.9437 22H12.8096Z" fill="#111827"/>
<path d="M12 17.5C12 20.5376 14.4624 23 17.5 23C20.5376 23 23 20.5376 23 17.5C23 14.4624 20.5376 12 17.5 12C14.4624 12 12 14.4624 12 17.5ZM15.5 17.007C15.5 16.0734 16.1374 15.289 17 15.0666L17 13.5009C17 13.2242 17.2239 13 17.5 13C17.7455 13 17.9496 13.1772 17.9919 13.4108L18 13.5009L18.001 15.0669C18.8631 15.2896 19.5 16.0738 19.5 17.007C19.5 17.9401 18.8631 18.7243 18.001 18.9471L18 21.4991C18 21.7758 17.7761 22 17.5 22C17.2545 22 17.0504 21.8228 17.0081 21.5892L17 21.4991L17 18.9473C16.1374 18.7249 15.5 17.9405 15.5 17.007Z" fill="#111827"/>
</svg>
