<svg width="24" height="24" viewBox="0 0 24 24" fill="none" xmlns="http://www.w3.org/2000/svg">
<path d="M12 2.0014C16.0041 2.0014 19.25 5.24734 19.25 9.2514C19.25 9.90837 19.1615 10.5484 18.9858 11.1706C18.5086 11.059 18.0112 11 17.5 11L17.4692 11.0001C17.6279 10.5201 17.7189 10.0298 17.7433 9.52845L17.75 9.2514L17.7458 9.03085C17.6299 5.95742 15.1018 3.5014 12 3.5014C8.89821 3.5014 6.37006 5.95742 6.25415 9.03085L6.25 9.2514L6.25672 9.52841C6.33286 11.0918 7.05722 12.5475 8.46262 13.9201C8.72675 14.1781 8.92265 14.4964 9.03422 14.8464L9.08291 15.0239L9.538 16.9994H11.019C11.0064 17.1646 11 17.3316 11 17.5C11 17.8399 11.0261 18.1736 11.0764 18.4994H9.884L10.2125 19.9186C10.2831 20.2249 10.5357 20.4508 10.8401 20.4929L10.9433 20.5H11.7322C12.0194 21.051 12.3832 21.5557 12.8096 22H10.9433C9.95374 22 9.08791 21.355 8.79629 20.4233L8.75088 20.2559L7.62132 15.3612C7.58904 15.2213 7.51728 15.0936 7.41456 14.9933C5.73515 13.353 4.83778 11.5302 4.75613 9.54966L4.75 9.2514L4.75388 9.01209C4.88014 5.1188 8.07601 2.0014 12 2.0014Z" fill="#111827"/>
<path d="M12 17.5C12 20.5376 14.4624 23 17.5 23C20.5376 23 23 20.5376 23 17.5C23 14.4624 20.5376 12 17.5 12C14.4624 12 12 14.4624 12 17.5ZM15.5 17.007C15.5 16.0734 16.1374 15.289 17 15.0666L17 13.5009C17 13.2242 17.2239 13 17.5 13C17.7455 13 17.9496 13.1772 17.9919 13.4108L18 13.5009L18.001 15.0669C18.8631 15.2896 19.5 16.0738 19.5 17.007C19.5 17.9401 18.8631 18.7243 18.001 18.9471L18 21.4991C18 21.7758 17.7761 22 17.5 22C17.2545 22 17.0504 21.8228 17.0081 21.5892L17 21.4991L17 18.9473C16.1374 18.7249 15.5 17.9405 15.5 17.007Z" fill="#111827"/>
</svg>
