<svg width="24" height="24" viewBox="0 0 24 24" fill="none" xmlns="http://www.w3.org/2000/svg">
<path d="M12.748 18.5049C12.748 18.0907 12.4123 17.7549 11.998 17.7549C11.5838 17.7549 11.248 18.0907 11.248 18.5049C11.248 18.9191 11.5838 19.2549 11.998 19.2549C12.4123 19.2549 12.748 18.9191 12.748 18.5049Z" fill="#111827"/>
<path d="M15.248 18.5049C15.248 18.0907 14.9123 17.7549 14.498 17.7549C14.0838 17.7549 13.748 18.0907 13.748 18.5049C13.748 18.9191 14.0838 19.2549 14.498 19.2549C14.9123 19.2549 15.248 18.9191 15.248 18.5049Z" fill="#111827"/>
<path d="M15.75 2C16.9926 2 18 3.00736 18 4.25V19.75C18 20.9926 16.9926 22 15.75 22H8.25C7.00736 22 6 20.9926 6 19.75V4.25C6 3.00736 7.00736 2 8.25 2H15.75ZM11.248 3.5H8.25C7.83579 3.5 7.5 3.83579 7.5 4.25V19.75C7.5 20.1642 7.83579 20.5 8.25 20.5H15.75C16.1642 20.5 16.5 20.1642 16.5 19.75V4.25C16.5 3.83579 16.1642 3.5 15.75 3.5H15.248V7C15.248 7.55228 14.8003 8 14.248 8H12.248C11.6958 8 11.248 7.55228 11.248 7V3.5Z" fill="#111827"/>
</svg>
