<svg width="25" height="24" viewBox="0 0 25 24" fill="none" xmlns="http://www.w3.org/2000/svg">
<path d="M11.2878 3.10251C11.783 2.09913 13.2138 2.09913 13.709 3.10251L16.067 7.88023L21.3395 8.64638C22.4468 8.80728 22.8889 10.168 22.0877 10.9491L18.2724 14.668L19.1731 19.9192C19.3622 21.022 18.2047 21.863 17.2143 21.3424L12.4984 18.8631L7.78252 21.3424C6.79213 21.863 5.63459 21.0221 5.82374 19.9192L6.7244 14.668L2.90916 10.9491C2.10791 10.168 2.55005 8.80728 3.65735 8.64638L8.92988 7.88023L11.2878 3.10251ZM12.4984 4.03891L10.2401 8.6148C10.0434 9.01324 9.66332 9.28941 9.22361 9.3533L4.17382 10.0871L7.82788 13.6489C8.14606 13.9591 8.29125 14.4059 8.21614 14.8438L7.35353 19.8732L11.8702 17.4987C12.2635 17.2919 12.7333 17.2919 13.1266 17.4987L17.6433 19.8732L16.7807 14.8438C16.7056 14.4059 16.8508 13.9591 17.1689 13.6489L20.823 10.0871L15.7732 9.3533C15.3335 9.28941 14.9534 9.01324 14.7568 8.6148L12.4984 4.03891Z" fill="#6B7280"/>
</svg>
