<svg width="20" height="20" viewBox="0 0 20 20" fill="none" xmlns="http://www.w3.org/2000/svg">
<path d="M10.8978 2.89899C10.531 2.15574 9.47114 2.15574 9.10433 2.89899L7.17389 6.81048L2.8573 7.43772C2.03708 7.55691 1.70956 8.56488 2.30308 9.14341L5.4266 12.1881L4.68924 16.4872C4.54913 17.3041 5.40655 17.9271 6.14018 17.5414L9.1899 15.9381C9.06606 15.4797 9 14.9976 9 14.5001C9 11.4625 11.4624 9.00006 14.5 9.00006C15.4606 9.00006 16.3636 9.24631 17.1495 9.67911L17.699 9.14342C18.2926 8.56488 17.9651 7.55691 17.1448 7.43772L12.8282 6.81048L10.8978 2.89899ZM10.6347 13.9201L10.1736 14.0379C10.1587 14.1898 10.151 14.344 10.151 14.5001C10.151 14.6877 10.1621 14.8727 10.1836 15.0543L10.5332 15.137C11.6526 15.4016 12.3186 16.5538 11.9893 17.6559L11.8629 18.0787C12.1201 18.2819 12.3999 18.4561 12.6976 18.5966L13.0226 18.2525C13.8124 17.4162 15.1432 17.4169 15.9321 18.254L16.2695 18.612C16.5619 18.4771 16.8373 18.3097 17.0913 18.1144L16.9352 17.5577C16.6319 16.4766 17.2779 15.3577 18.3658 15.0798L18.8264 14.9621C18.8413 14.8102 18.849 14.6561 18.849 14.5001C18.849 14.3123 18.8379 14.1272 18.8163 13.9454L18.4673 13.8629C17.3479 13.5982 16.6819 12.4461 17.0112 11.344L17.1374 10.9217C16.8802 10.7184 16.6004 10.5441 16.3026 10.4036L15.9779 10.7474C15.1881 11.5837 13.8573 11.583 13.0684 10.7459L12.7311 10.3879C12.4386 10.5228 12.1632 10.6901 11.9092 10.8854L12.0653 11.4422C12.3686 12.5233 11.7226 13.6422 10.6347 13.9201ZM15.5 14.5001C15.5 15.0523 15.0523 15.5001 14.5 15.5001C13.9477 15.5001 13.5 15.0523 13.5 14.5001C13.5 13.9478 13.9477 13.5001 14.5 13.5001C15.0523 13.5001 15.5 13.9478 15.5 14.5001Z" fill="#111827"/>
</svg>
