<svg width="20" height="20" viewBox="0 0 20 20" fill="none" xmlns="http://www.w3.org/2000/svg">
<path d="M10.8978 2.89899C10.531 2.15574 9.47114 2.15574 9.10433 2.89899L7.17389 6.81048L2.8573 7.43772C2.03708 7.55691 1.70956 8.56488 2.30308 9.14341L5.4266 12.1881L4.68924 16.4872C4.54913 17.3041 5.40655 17.9271 6.14018 17.5414L9.1899 15.9381C9.09959 15.6038 9.04001 15.2569 9.01436 14.9006L5.67484 16.6563L6.41221 12.3571C6.46784 12.0327 6.3603 11.7017 6.12461 11.472L3.00109 8.42733L7.31769 7.80009C7.6434 7.75276 7.92496 7.54819 8.07062 7.25305L10.0011 3.34155L11.9315 7.25305C12.0772 7.54819 12.3587 7.75276 12.6844 7.80009L17.001 8.42733L16.1539 9.25308C16.502 9.36269 16.8351 9.50597 17.1495 9.67911L17.699 9.14342C18.2926 8.56488 17.9651 7.55691 17.1448 7.43772L12.8282 6.81048L10.8978 2.89899ZM10.6347 13.9201C11.7226 13.6422 12.3686 12.5233 12.0653 11.4422L11.9092 10.8854C12.1632 10.6901 12.4386 10.5228 12.7311 10.3879L13.0684 10.7459C13.8573 11.583 15.1881 11.5837 15.9779 10.7474L16.3026 10.4036C16.6004 10.5441 16.8802 10.7184 17.1374 10.9217L17.0112 11.344C16.6819 12.4461 17.3479 13.5982 18.4673 13.8629L18.8163 13.9454C18.8379 14.1272 18.849 14.3123 18.849 14.5001C18.849 14.6561 18.8413 14.8102 18.8264 14.9621L18.3658 15.0798C17.2779 15.3577 16.6319 16.4766 16.9352 17.5577L17.0913 18.1144C16.8373 18.3097 16.5619 18.4771 16.2695 18.612L15.9321 18.254C15.1432 17.4169 13.8124 17.4162 13.0226 18.2525L12.6976 18.5966C12.3999 18.4561 12.1201 18.2819 11.8629 18.0787L11.9893 17.6559C12.3186 16.5538 11.6526 15.4016 10.5332 15.137L10.1836 15.0543C10.1621 14.8727 10.151 14.6877 10.151 14.5001C10.151 14.344 10.1587 14.1898 10.1736 14.0379L10.6347 13.9201ZM15.5 14.5001C15.5 13.9478 15.0523 13.5001 14.5 13.5001C13.9477 13.5001 13.5 13.9478 13.5 14.5001C13.5 15.0523 13.9477 15.5001 14.5 15.5001C15.0523 15.5001 15.5 15.0523 15.5 14.5001Z" fill="#111827"/>
</svg>
