<svg width="21" height="21" viewBox="0 0 21 21" fill="none" xmlns="http://www.w3.org/2000/svg">
<path d="M8.78782 1.10263C9.28302 0.0992552 10.7138 0.0992493 11.209 1.10263L13.567 5.88036L18.8395 6.6465C19.9468 6.8074 20.3889 8.16816 19.5877 8.94918L18.6828 9.83123C18.2105 9.56549 17.7016 9.35706 17.1656 9.21538L18.323 8.0872L13.2732 7.35343C12.8335 7.28953 12.4534 7.01336 12.2568 6.61492L9.99842 2.03903L7.74008 6.61492C7.54344 7.01336 7.16332 7.28953 6.72361 7.35343L1.67382 8.0872L5.32788 11.649C5.64606 11.9592 5.79125 12.406 5.71614 12.844L4.85353 17.8734L9.00278 15.692C9.01851 16.2343 9.10067 16.76 9.24142 17.2612L5.28252 19.3425C4.29213 19.8632 3.13459 19.0222 3.32374 17.9193L4.2244 12.6681L0.409159 8.94919C-0.392086 8.16816 0.0500454 6.8074 1.15735 6.6465L6.42988 5.88036L8.78782 1.10263ZM12.2782 11.9754C12.593 13.0656 11.9386 14.1991 10.837 14.4716L10.2528 14.6161C10.2079 14.9038 10.1846 15.199 10.1846 15.4998C10.1846 15.8145 10.2101 16.123 10.2592 16.4232L10.7986 16.5532C11.9111 16.8211 12.5725 17.9661 12.2486 19.0636L12.0623 19.6949C12.5014 20.0805 13.0019 20.3937 13.5464 20.6165L14.0397 20.0977C14.8283 19.2685 16.1506 19.2687 16.9388 20.0982L17.4375 20.623C17.9811 20.4027 18.4811 20.0925 18.9204 19.7101L18.7223 19.0242C18.4076 17.9339 19.062 16.8005 20.1635 16.528L20.7472 16.3835C20.7922 16.0958 20.8155 15.8006 20.8155 15.4998C20.8155 15.1851 20.7899 14.8765 20.7409 14.5762L20.2019 14.4464C19.0894 14.1785 18.4281 13.0335 18.7519 11.9359L18.9381 11.3051C18.499 10.9193 17.9985 10.6061 17.4539 10.3833L16.9608 10.9018C16.1722 11.7311 14.85 11.7309 14.0617 10.9013L13.5629 10.3765C13.0193 10.5967 12.5194 10.9068 12.0801 11.2892L12.2782 11.9754ZM15.5 16.9998C14.6994 16.9998 14.0504 16.3282 14.0504 15.4998C14.0504 14.6714 14.6994 13.9998 15.5 13.9998C16.3007 13.9998 16.9497 14.6714 16.9497 15.4998C16.9497 16.3282 16.3007 16.9998 15.5 16.9998Z" fill="#111827"/>
</svg>
