<svg width="24" height="24" viewBox="0 0 24 24" fill="none" xmlns="http://www.w3.org/2000/svg">
<path fill-rule="evenodd" clip-rule="evenodd" d="M18 4.25C18 3.00736 16.9926 2 15.75 2H8.25C7.00736 2 6 3.00736 6 4.25V19.75C6 20.9926 7.00736 22 8.25 22H15.75C16.9926 22 18 20.9926 18 19.75V4.25ZM11.2488 18.5119C11.2488 18.0977 11.5846 17.7619 11.9988 17.7619C12.413 17.7619 12.7488 18.0977 12.7488 18.5119C12.7488 18.9261 12.413 19.2619 11.9988 19.2619C11.5846 19.2619 11.2488 18.9261 11.2488 18.5119ZM13.7488 18.5119C13.7488 18.0977 14.0846 17.7619 14.4988 17.7619C14.913 17.7619 15.2488 18.0977 15.2488 18.5119C15.2488 18.9261 14.913 19.2619 14.4988 19.2619C14.0846 19.2619 13.7488 18.9261 13.7488 18.5119Z" fill="#111827"/>
</svg>
