<svg width="28" height="28" viewBox="0 0 28 28" fill="none" xmlns="http://www.w3.org/2000/svg">
<path d="M15.4081 3.49507C14.5854 2.83498 13.4146 2.83498 12.5919 3.49507L4.84191 9.7134C4.30967 10.1404 4 10.786 4 11.4683V22.7487C4 23.9914 5.00736 24.9987 6.25 24.9987H9.25C10.4926 24.9987 11.5 23.9914 11.5 22.7487V16.7487C11.5 16.3345 11.8358 15.9987 12.25 15.9987H16V15.749C16 15.2988 16.1082 14.8738 16.3 14.4987H12.25C11.0074 14.4987 10 15.5061 10 16.7487V22.7487C10 23.1629 9.66421 23.4987 9.25 23.4987H6.25C5.83579 23.4987 5.5 23.1629 5.5 22.7487V11.4683C5.5 11.2409 5.60322 11.0257 5.78064 10.8834L13.5306 4.66502C13.8049 4.44499 14.1951 4.44499 14.4694 4.66502L22.2194 10.8834C22.3968 11.0257 22.5 11.2409 22.5 11.4683V13.0102C23.0672 13.0613 23.5848 13.2847 24 13.6276V11.4683C24 10.786 23.6903 10.1404 23.1581 9.7134L15.4081 3.49507Z" fill="#111827"/>
<path fill-rule="evenodd" clip-rule="evenodd" d="M17 15.749V16.999H15.75C14.7835 16.999 14 17.7825 14 18.749V20.999H17V20.499C17 20.2229 17.2239 19.999 17.5 19.999C17.7761 19.999 18 20.2229 18 20.499V20.999H23V20.499C23 20.2229 23.2239 19.999 23.5 19.999C23.7761 19.999 24 20.2229 24 20.499V20.999H27V18.749C27 17.7825 26.2165 16.999 25.25 16.999H24V15.749C24 14.7825 23.2165 13.999 22.25 13.999H18.75C17.7835 13.999 17 14.7825 17 15.749ZM18.75 15.499C18.6119 15.499 18.5 15.611 18.5 15.749V16.999H22.5V15.749C22.5 15.611 22.3881 15.499 22.25 15.499H18.75Z" fill="#111827"/>
<path d="M23 21.999V22.499C23 22.7752 23.2239 22.999 23.5 22.999C23.7761 22.999 24 22.7752 24 22.499V21.999H27V25.249C27 26.2155 26.2165 26.999 25.25 26.999H15.75C14.7835 26.999 14 26.2155 14 25.249V21.999H17V22.499C17 22.7752 17.2239 22.999 17.5 22.999C17.7761 22.999 18 22.7752 18 22.499V21.999H23Z" fill="#111827"/>
</svg>
