<svg width="32" height="32" viewBox="0 0 32 32" fill="none" xmlns="http://www.w3.org/2000/svg">
<path d="M13.8952 2.77369C15.1088 1.7421 16.8912 1.7421 18.1049 2.77369L27.8549 11.0612C28.5813 11.6787 29 12.584 29 13.5375V17.575C28.8369 17.5419 28.67 17.5194 28.5 17.5082V17.5C28.5 15.567 26.933 14 25 14H21C19.067 14 17.5 15.567 17.5 17.5V17.5082C16.3769 17.5821 15.3895 18.15 14.7522 18.997H13.5C13.2239 18.997 13 19.2208 13 19.497V26.497C13 27.8777 11.8807 28.997 10.5 28.997H5.5C4.11929 28.997 3 27.8777 3 26.497V13.5375C3 12.584 3.41868 11.6787 4.14515 11.0612L13.8952 2.77369Z" fill="#111827"/>
<path fill-rule="evenodd" clip-rule="evenodd" d="M19 19V17.5C19 16.3954 19.8954 15.5 21 15.5H25C26.1046 15.5 27 16.3954 27 17.5V19H28.25C29.4926 19 30.5 20.0074 30.5 21.25V23.5H27V22.75C27 22.3358 26.6642 22 26.25 22C25.8358 22 25.5 22.3358 25.5 22.75V23.5H20.5V22.75C20.5 22.3358 20.1642 22 19.75 22C19.3358 22 19 22.3358 19 22.75V23.5H15.5V21.25C15.5 20.0074 16.5074 19 17.75 19H19ZM20.5 17.5C20.5 17.2239 20.7239 17 21 17H25C25.2761 17 25.5 17.2239 25.5 17.5V19H20.5V17.5Z" fill="#111827"/>
<path d="M25.5 25.75V25H20.5V25.75C20.5 26.1642 20.1642 26.5 19.75 26.5C19.3358 26.5 19 26.1642 19 25.75V25H15.5V28.25C15.5 29.4926 16.5074 30.5 17.75 30.5H28.25C29.4926 30.5 30.5 29.4926 30.5 28.25V25H27V25.75C27 26.1642 26.6642 26.5 26.25 26.5C25.8358 26.5 25.5 26.1642 25.5 25.75Z" fill="#111827"/>
</svg>
