<svg width="28" height="28" viewBox="0 0 28 28" fill="none" xmlns="http://www.w3.org/2000/svg">
<path d="M15.4079 3.4949C14.5853 2.83503 13.4147 2.83503 12.5921 3.4949L4.84212 9.71164C4.30976 10.1387 4 10.7843 4 11.4667V22.747C4 23.9897 5.00736 24.997 6.25 24.997H8.75C9.99264 24.997 11 23.9897 11 22.747V16.247C11 15.8328 11.3358 15.497 11.75 15.497H16.0115C16.1392 14.0968 17.3165 13 18.75 13H22.25C22.9148 13 23.5245 13.2359 24 13.6286V11.4667C24 10.7843 23.6902 10.1387 23.1579 9.71164L15.4079 3.4949Z" fill="#111827"/>
<path fill-rule="evenodd" clip-rule="evenodd" d="M17 15.75V17H15.75C14.7835 17 14 17.7835 14 18.75V21H17V20.5C17 20.2239 17.2239 20 17.5 20C17.7761 20 18 20.2239 18 20.5V21H23V20.5C23 20.2239 23.2239 20 23.5 20C23.7761 20 24 20.2239 24 20.5V21H27V18.75C27 17.7835 26.2165 17 25.25 17H24V15.75C24 14.7835 23.2165 14 22.25 14H18.75C17.7835 14 17 14.7835 17 15.75ZM18.75 15.5C18.6119 15.5 18.5 15.6119 18.5 15.75V17H22.5V15.75C22.5 15.6119 22.3881 15.5 22.25 15.5H18.75Z" fill="#111827"/>
<path d="M23 22V22.5C23 22.7761 23.2239 23 23.5 23C23.7761 23 24 22.7761 24 22.5V22H27V25.25C27 26.2165 26.2165 27 25.25 27H15.75C14.7835 27 14 26.2165 14 25.25V22H17V22.5C17 22.7761 17.2239 23 17.5 23C17.7761 23 18 22.7761 18 22.5V22H23Z" fill="#111827"/>
</svg>
