<svg width="32" height="32" viewBox="0 0 32 32" fill="none" xmlns="http://www.w3.org/2000/svg">
<path d="M15.1904 4.29757C15.6572 3.90081 16.3428 3.90081 16.8096 4.29757L26.5596 12.585C26.839 12.8225 27 13.1707 27 13.5375V14.6273C27.9067 15.2598 28.5 16.3106 28.5 17.5V17.5082C28.67 17.5194 28.8369 17.5419 29 17.575V13.5375C29 12.584 28.5813 11.6787 27.8549 11.0612L18.1049 2.77369C16.8912 1.7421 15.1088 1.7421 13.8952 2.77369L4.14515 11.0612C3.41868 11.6787 3 12.584 3 13.5375V26.497C3 27.8777 4.11929 28.997 5.5 28.997H10.5C11.8807 28.997 13 27.8777 13 26.497V19.497C13 19.2208 13.2239 18.997 13.5 18.997H14.7522C15.3895 18.15 16.3769 17.5821 17.5 17.5082V17.5C17.5 17.3292 17.5122 17.1612 17.5359 16.997H13.5C12.1193 16.997 11 18.1163 11 19.497V26.497C11 26.7731 10.7761 26.997 10.5 26.997H5.5C5.22386 26.997 5 26.7731 5 26.497V13.5375C5 13.1707 5.16103 12.8225 5.44044 12.585L15.1904 4.29757Z" fill="#111827"/>
<path fill-rule="evenodd" clip-rule="evenodd" d="M19 19V17.5C19 16.3954 19.8954 15.5 21 15.5H25C26.1046 15.5 27 16.3954 27 17.5V19H28.25C29.4926 19 30.5 20.0074 30.5 21.25V23.5H27V22.75C27 22.3358 26.6642 22 26.25 22C25.8358 22 25.5 22.3358 25.5 22.75V23.5H20.5V22.75C20.5 22.3358 20.1642 22 19.75 22C19.3358 22 19 22.3358 19 22.75V23.5H15.5V21.25C15.5 20.0074 16.5074 19 17.75 19H19ZM20.5 17.5C20.5 17.2239 20.7239 17 21 17H25C25.2761 17 25.5 17.2239 25.5 17.5V19H20.5V17.5Z" fill="#111827"/>
<path d="M25.5 25.75V25H20.5V25.75C20.5 26.1642 20.1642 26.5 19.75 26.5C19.3358 26.5 19 26.1642 19 25.75V25H15.5V28.25C15.5 29.4926 16.5074 30.5 17.75 30.5H28.25C29.4926 30.5 30.5 29.4926 30.5 28.25V25H27V25.75C27 26.1642 26.6642 26.5 26.25 26.5C25.8358 26.5 25.5 26.1642 25.5 25.75Z" fill="#111827"/>
</svg>
