<svg width="25" height="24" viewBox="0 0 25 24" fill="none" xmlns="http://www.w3.org/2000/svg">
<path d="M13.875 4.375C13.875 4.60006 13.8209 4.81248 13.7251 5H16.25C18.0449 5 19.5 6.45507 19.5 8.25V9L5.5 9V8.25C5.5 6.45507 6.95507 5 8.75 5H11.2749C11.1791 4.81248 11.125 4.60006 11.125 4.375C11.125 3.61561 11.7406 3 12.5 3C13.2594 3 13.875 3.61561 13.875 4.375Z" fill="#1470CC"/>
<path d="M5.5 10.5L5.5 12H4.1C3.76863 12 3.5 12.2686 3.5 12.6C3.5 13.7892 4.36491 14.7764 5.5 14.9668V17.75C5.5 19.5449 6.95507 21 8.75 21H16.25C18.0449 21 19.5 19.5449 19.5 17.75V14.9668C20.6351 14.7764 21.5 13.7892 21.5 12.6C21.5 12.2686 21.2314 12 20.9 12H19.5V10.5L5.5 10.5Z" fill="#1470CC"/>
</svg>
