<svg width="24" height="24" viewBox="0 0 24 24" fill="none" xmlns="http://www.w3.org/2000/svg">
<path d="M12 2.5C12.4142 2.5 12.75 2.83579 12.75 3.25L12.75 4.75C12.75 5.16421 12.4142 5.5 12 5.5C11.5858 5.5 11.25 5.16421 11.25 4.75L11.25 3.25C11.25 2.83579 11.5858 2.5 12 2.5ZM12 6.5C12.4142 6.5 12.75 6.83579 12.75 7.25L12.75 8.75C12.75 9.16421 12.4142 9.5 12 9.5C11.5858 9.5 11.25 9.16421 11.25 8.75L11.25 7.25C11.25 6.83579 11.5858 6.5 12 6.5ZM12 10.5C12.4142 10.5 12.75 10.8358 12.75 11.25L12.75 12.75C12.75 13.1642 12.4142 13.5 12 13.5C11.5858 13.5 11.25 13.1642 11.25 12.75L11.25 11.25C11.25 10.8358 11.5858 10.5 12 10.5ZM12 14.5C12.4142 14.5 12.75 14.8358 12.75 15.25L12.75 16.75C12.75 17.1642 12.4142 17.5 12 17.5C11.5858 17.5 11.25 17.1642 11.25 16.75L11.25 15.25C11.25 14.8358 11.5858 14.5 12 14.5ZM12 18.5C12.4142 18.5 12.75 18.8358 12.75 19.25L12.75 20.75C12.75 21.1642 12.4142 21.5 12 21.5C11.5858 21.5 11.25 21.1642 11.25 20.75L11.25 19.25C11.25 18.8358 11.5858 18.5 12 18.5ZM22 4.75C22 4.33579 21.6642 4 21.25 4L17 4C15.896 4 15 4.896 15 6L15 18C15 19.104 15.896 20 17 20L21.25 20C21.6642 20 22 19.6642 22 19.25C22 18.8358 21.6642 18.5 21.25 18.5L17 18.5C16.725 18.5 16.5 18.276 16.5 18L16.5 6C16.5 5.724 16.725 5.5 17 5.5L21.25 5.5C21.6642 5.5 22 5.16421 22 4.75ZM2 19.25C2 19.6642 2.33579 20 2.75 20L7 20C8.104 20 9 19.104 9 18L9 6C9 4.896 8.104 4 7 4L2.75 4C2.33579 4 2 4.33579 2 4.75C2 5.16421 2.33579 5.5 2.75 5.5L7 5.5C7.275 5.5 7.5 5.724 7.5 6L7.5 18C7.5 18.276 7.275 18.5 7 18.5L2.75 18.5C2.33579 18.5 2 18.8358 2 19.25Z" fill="#111827"/>
</svg>
