<svg width="25" height="24" viewBox="0 0 25 24" fill="none" xmlns="http://www.w3.org/2000/svg">
<path d="M7.25 22C6.83579 22 6.5 21.6642 6.5 21.25C6.5 20.8703 6.78215 20.5565 7.14823 20.5068L7.25 20.5L8.999 20.4995V18.0015L4.75 18.0018C3.55914 18.0018 2.58436 17.0766 2.50519 15.9058L2.5 15.7518V5.24951C2.5 4.05865 3.42516 3.08387 4.59595 3.0047L4.75 2.99951H20.2488C21.4397 2.99951 22.4145 3.92467 22.4936 5.09546L22.4988 5.24951V15.7518C22.4988 16.9427 21.5737 17.9174 20.4029 17.9966L20.2488 18.0018L15.999 18.0015V20.4995L17.75 20.5C18.1642 20.5 18.5 20.8357 18.5 21.25C18.5 21.6296 18.2178 21.9434 17.8518 21.9931L17.75 22H7.25ZM14.498 18.0015H10.498L10.499 20.5H14.499L14.498 18.0015Z" fill="#1470CC"/>
</svg>
