<svg width="12" height="12" viewBox="0 0 12 12" fill="none" xmlns="http://www.w3.org/2000/svg">
<path d="M3.52109 1.35633C3.58454 1.14483 3.7792 1 4 1H8C8.16592 1 8.32102 1.0823 8.41404 1.21969C8.50705 1.35707 8.52586 1.53165 8.46424 1.6857L7.73852 3.5H9.5C9.69469 3.5 9.87168 3.61301 9.95359 3.78963C10.0355 3.96624 10.0075 4.17435 9.8817 4.32297L4.3817 10.823C4.23877 10.9919 4.00182 11.0468 3.79918 10.9579C3.59655 10.869 3.47642 10.6575 3.50387 10.438L3.93361 7H2.5C2.34195 7 2.1932 6.92527 2.09886 6.79847C2.00451 6.67166 1.97567 6.50771 2.02109 6.35633L3.52109 1.35633ZM4.37202 2L3.17202 6H4.5C4.64342 6 4.77993 6.06158 4.87484 6.1691C4.96976 6.27661 5.01393 6.41971 4.99614 6.56202L4.70477 8.89304L8.42195 4.5H7C6.83409 4.5 6.67899 4.4177 6.58597 4.28031C6.49296 4.14293 6.47415 3.96835 6.53577 3.8143L7.26149 2H4.37202Z" fill="#111827"/>
</svg>
