<svg width="24" height="24" viewBox="0 0 24 24" fill="none" xmlns="http://www.w3.org/2000/svg">
<path d="M12.5383 4.29449C12.8615 4.05075 13.182 3.86356 13.4688 3.73169C13.5555 5.85881 14.5955 7.45829 15.5965 8.87109C15.6881 9.00031 15.7789 9.12767 15.8687 9.25354C16.9522 10.7721 17.88 12.0725 17.9813 13.794C18.0979 15.7759 17.6036 17.4514 16.6453 18.6176C15.6986 19.7696 14.2385 20.5 12.25 20.5C10.1887 20.5 8.63957 19.9712 7.55846 19.0843C6.48241 18.2015 5.79469 16.9026 5.56499 15.2123C5.33899 13.5492 5.74146 12.3672 6.17622 11.6092C6.26173 11.4601 6.34903 11.3266 6.43391 11.2084L6.7489 11.8066C7.29995 12.8532 8.57836 13.2789 9.64681 12.7716C10.9525 12.1516 11.231 10.5595 10.8164 9.4416C10.5264 8.65954 10.372 7.70456 10.7077 6.74841C11.084 5.67629 11.7985 4.85253 12.5383 4.29449ZM6.15633 9.3231L6.15392 9.32491L6.14997 9.3279L6.13959 9.33586C6.1316 9.34204 6.12148 9.34999 6.10939 9.35973C6.08521 9.37919 6.05311 9.40581 6.01439 9.43966C5.937 9.50732 5.83281 9.6042 5.71233 9.73104C5.47168 9.98437 5.16365 10.3598 4.87507 10.8629C4.29288 11.8779 3.80365 13.3906 4.07865 15.4142C4.34994 17.4107 5.1883 19.0801 6.60708 20.244C8.02081 21.4038 9.9353 22 12.25 22C14.6375 22 16.5424 21.1054 17.8042 19.5699C19.0544 18.0486 19.6121 15.9741 19.4787 13.706C19.3507 11.5302 18.1656 9.87945 17.1187 8.42123C17.0176 8.28043 16.9179 8.14142 16.8204 8.00391C15.6785 6.39222 14.7768 4.90657 14.9959 2.82863C15.0182 2.61721 14.9497 2.40625 14.8074 2.24824C14.6652 2.09023 14.4626 2 14.25 2C13.868 2 13.4309 2.11822 13.0077 2.29599C12.5715 2.47923 12.0983 2.74751 11.635 3.09694C10.7104 3.79438 9.78586 4.84563 9.29233 6.25159C8.80003 7.65409 9.04944 8.99089 9.41005 9.9632C9.64686 10.6017 9.39002 11.233 9.00344 11.4165C8.66156 11.5789 8.25249 11.4427 8.07616 11.1078L7.26884 9.57452C7.1667 9.38052 6.98478 9.24093 6.77096 9.19248C6.55714 9.14403 6.33212 9.19209 6.15633 9.3231Z" fill="#111827"/>
</svg>
