<svg width="24" height="24" viewBox="0 0 24 24" fill="none" xmlns="http://www.w3.org/2000/svg">
<path d="M8.25 3C5.35051 3 3 5.3505 3 8.25V18.75C3 19.9926 4.00736 21 5.25 21H13.4009C12.6437 20.7079 12.0051 20.1772 11.5773 19.5H5.25C4.83579 19.5 4.5 19.1642 4.5 18.75V8.25C4.5 6.17893 6.17893 4.5 8.25 4.5H15.75C17.8211 4.5 19.5 6.17893 19.5 8.25V13.75H20.25C20.5068 13.75 20.7577 13.7758 21 13.825V8.25C21 5.35051 18.6495 3 15.75 3H8.25Z" fill="#111827"/>
<path d="M11.0721 16.7645C11.0321 16.7579 10.9911 16.7545 10.9492 16.7545C10.535 16.7545 10.1992 17.0902 10.1992 17.5045C10.1992 17.9187 10.535 18.2545 10.9492 18.2545C10.9917 18.2545 11.0333 18.2509 11.0738 18.2442C11.0254 18.0036 11 17.7548 11 17.5C11 17.2483 11.0248 17.0023 11.0721 16.7645Z" fill="#111827"/>
<path d="M6.75 16.7545C7.16421 16.7545 7.5 17.0902 7.5 17.5045C7.5 17.9187 7.16421 18.2545 6.75 18.2545C6.33579 18.2545 6 17.9187 6 17.5045C6 17.0902 6.33579 16.7545 6.75 16.7545Z" fill="#111827"/>
<path d="M9.59961 17.5045C9.59961 17.0902 9.26382 16.7545 8.84961 16.7545C8.4354 16.7545 8.09961 17.0902 8.09961 17.5045C8.09961 17.9187 8.4354 18.2545 8.84961 18.2545C9.26382 18.2545 9.59961 17.9187 9.59961 17.5045Z" fill="#111827"/>
<path d="M23 17.5C23 15.9812 21.7688 14.75 20.25 14.75H14.75C13.2312 14.75 12 15.9812 12 17.5C12 19.0188 13.2312 20.25 14.75 20.25H20.25C21.7688 20.25 23 19.0188 23 17.5ZM20.0634 16.125C20.8499 16.125 21.4875 16.7406 21.4875 17.5C21.4875 18.2594 20.8499 18.875 20.0634 18.875H18.9241C18.1376 18.875 17.5 18.2594 17.5 17.5C17.5 16.7406 18.1376 16.125 18.9241 16.125H20.0634Z" fill="url(#paint0_linear_7483_43920)"/>
<defs>
<linearGradient id="paint0_linear_7483_43920" x1="12" y1="14.75" x2="23.6109" y2="18.1852" gradientUnits="userSpaceOnUse">
<stop stop-color="#F858A2"/>
<stop offset="1" stop-color="#FE585C"/>
</linearGradient>
</defs>
</svg>
