<svg width="16" height="16" viewBox="0 0 16 16" fill="none" xmlns="http://www.w3.org/2000/svg">
<path d="M10.3787 1C10.9091 1 11.4178 1.21071 11.7929 1.58579L13.4142 3.20711C13.7893 3.58218 14 4.09089 14 4.62132V13C14 14.1046 13.1046 15 12 15V13.5C12 12.6716 11.3284 12 10.5 12H5.5C4.6727 12 4 12.6687 4 13.4983V14.9999C2.89549 14.9999 2 14.1046 2 13V3C2 1.89543 2.89543 1 4 1C6.42089 1 10.2406 1 10.3787 1ZM5 15H11V13.5C11 13.2239 10.7761 13 10.5 13H5.5C5.22273 13 5 13.2233 5 13.4983V15Z" fill="#111827"/>
</svg>
