<svg width="24" height="24" viewBox="0 0 24 24" fill="none" xmlns="http://www.w3.org/2000/svg">
<path d="M3 4.75C3 3.23122 4.23122 2 5.75 2H15.7145C16.5764 2 17.4031 2.34241 18.0126 2.9519L20.0481 4.98744C20.6576 5.59693 21 6.42358 21 7.28553V19.25C21 20.7688 19.7688 22 18.25 22H5.75C4.23122 22 3 20.7688 3 19.25V4.75ZM5.75 3.5C5.05964 3.5 4.5 4.05964 4.5 4.75V19.25C4.5 19.9404 5.05964 20.5 5.75 20.5H6V19.25C6 18.0074 7.00736 17 8.25 17H15.75C16.9926 17 18 18.0074 18 19.25V20.5H18.25C18.9404 20.5 19.5 19.9404 19.5 19.25V7.28553C19.5 6.8214 19.3156 6.37629 18.9874 6.0481L16.9519 4.01256C16.6918 3.75246 16.3631 3.52344 16 3.52344C14 3.52344 9 3.5 5.75 3.5ZM16.5 20.5V19.25C16.5 18.8358 16.1642 18.5 15.75 18.5H8.25C7.83579 18.5 7.5 18.8358 7.5 19.25V20.5H16.5Z" fill="#111827"/>
</svg>
