<svg width="20" height="20" viewBox="0 0 20 20" fill="none" xmlns="http://www.w3.org/2000/svg">
<path d="M3 4C3 2.89543 3.89543 2 5 2H13.3787C13.9091 2 14.4178 2.21071 14.7929 2.58579L16.4142 4.20711C16.7893 4.58218 17 5.09089 17 5.62132V16C17 17.1046 16.1046 18 15 18H5C3.89543 18 3 17.1046 3 16V4ZM5 3C4.44772 3 4 3.44772 4 4V16C4 16.5523 4.44772 17 5 17L5 16.5C5 15.6716 5.67157 15 6.5 15H13.5C14.3284 15 15 15.6716 15 16.5V17C15.5523 17 16 16.5523 16 16V5.62132C16 5.3561 15.8946 5.10175 15.7071 4.91421L14.0858 3.29289C13.8983 3.10536 13.6439 3 13.3787 3C11.5946 3 8.5 3 5 3ZM14 17V16.5C14 16.2239 13.7761 16 13.5 16H6.5C6.22386 16 6 16.2239 6 16.5V17H14Z" fill="#111827"/>
</svg>
