<svg width="16" height="16" viewBox="0 0 16 16" fill="none" xmlns="http://www.w3.org/2000/svg">
<path d="M4 2C3.44772 2 3 2.44772 3 3V13C3 13.5523 3.44772 14 4 14V13.5C4 12.6716 4.67157 12 5.5 12H10.5C11.3284 12 12 12.6716 12 13.5V14C12.5523 14 13 13.5523 13 13V4.62132C13 4.3561 12.8946 4.10175 12.7071 3.91421L11.0858 2.29289C10.8982 2.10536 10.6439 2 10.3787 2C9.8938 2 6.09435 2 4 2ZM11 14V13.5C11 13.2239 10.7761 13 10.5 13H5.5C5.22386 13 5 13.2239 5 13.5V14H11ZM2 3C2 1.89543 2.89543 1 4 1H10.3787C10.9091 1 11.4178 1.21071 11.7929 1.58579L13.4142 3.20711C13.7893 3.58218 14 4.09089 14 4.62132V13C14 14.1046 13.1046 15 12 15H4C2.89543 15 2 14.1046 2 13V3Z" fill="#111827"/>
</svg>
