<svg width="24" height="24" viewBox="0 0 24 24" fill="none" xmlns="http://www.w3.org/2000/svg">
<path d="M5.75 2C4.23122 2 3 3.23122 3 4.75V19.25C3 20.7688 4.23122 22 5.75 22H6V19.25C6 18.0074 7.00736 17 8.25 17H15.75C16.9926 17 18 18.0074 18 19.25V22H18.25C19.7688 22 21 20.7688 21 19.25V7.28553C21 6.42358 20.6576 5.59693 20.0481 4.98744L18.0126 2.9519C17.4114 2.35079 16.5991 2.00947 15.75 2.00019L5.75 2ZM16.5 22V19.25C16.5 18.8358 16.1642 18.5 15.75 18.5H8.25C7.83579 18.5 7.5 18.8358 7.5 19.25V22H16.5Z" fill="#111827"/>
</svg>
