<svg width="28" height="28" viewBox="0 0 28 28" fill="none" xmlns="http://www.w3.org/2000/svg">
<path d="M6.25 3.5C5.2835 3.5 4.5 4.2835 4.5 5.25V22.75C4.5 23.6316 5.15193 24.361 6 24.4823V23.25C6 22.0074 7.00736 21 8.25 21H19.75C20.9926 21 22 22.0074 22 23.25V24.4823C22.8481 24.361 23.5 23.6316 23.5 22.75V7.78553C23.5 7.3214 23.3156 6.87629 22.9874 6.5481L20.4519 4.01256C20.1237 3.68437 19.6786 3.5 19.2145 3.5C16.6271 3.5 6.25 3.5 6.25 3.5ZM20.5 24.5V23.25C20.5 22.8358 20.1642 22.5 19.75 22.5H8.25C7.83579 22.5 7.5 22.8358 7.5 23.25V24.5H20.5ZM3 5.25C3 3.45507 4.45507 2 6.25 2H19.2145C20.0764 2 20.9031 2.34241 21.5126 2.9519L24.0481 5.48744C24.6576 6.09693 25 6.92358 25 7.78553V22.75C25 24.5449 23.5449 26 21.75 26H6.25C4.45507 26 3 24.5449 3 22.75V5.25Z" fill="#111827"/>
</svg>
