<svg width="28" height="28" viewBox="0 0 28 28" fill="none" xmlns="http://www.w3.org/2000/svg">
<path d="M6.25 3C4.45507 3 3 4.45507 3 6.25V21.75C3 23.4608 4.32189 24.8629 6 24.9905V23.25C6 22.0074 7.00736 21 8.25 21H19.75C20.9926 21 22 22.0074 22 23.25V24.9905C23.6781 24.8629 25 23.4608 25 21.75V8.78553C25 7.92358 24.6576 7.09693 24.0481 6.48744L21.5126 3.9519C20.9031 3.34241 20.0764 3 19.2145 3H6.25ZM20.5 25V23.25C20.5 22.8358 20.1642 22.5 19.75 22.5H8.25C7.83579 22.5 7.5 22.8358 7.5 23.25V25H20.5Z" fill="#111827"/>
</svg>
