<svg width="24" height="24" viewBox="0 0 24 24" fill="none" xmlns="http://www.w3.org/2000/svg">
<path d="M10 2C11.733 2 13.1492 3.35645 13.2449 5.06546L13.25 5.24987L13.251 13.202L13.331 13.2709C13.4106 13.342 13.4877 13.4154 13.5622 13.491C13.5062 13.5166 13.4487 13.5393 13.39 13.559L12.05 13.999C12.0011 14.0165 11.9531 14.0362 11.9064 14.058L11.7515 13.9451L11.75 5.25C11.75 4.2835 10.9665 3.5 10 3.5C9.08183 3.5 8.32881 4.20711 8.2558 5.10651L8.25 5.25004L8.24954 13.9445L7.94128 14.1691C7.04185 14.8246 6.5 15.8664 6.5 17C6.5 18.933 8.067 20.5 10 20.5C11.7691 20.5 13.2316 19.1875 13.4669 17.4831C13.7104 17.5759 13.9326 17.7173 14.12 17.899L14.3 17.999C14.4258 18.1655 14.5237 18.3512 14.59 18.549L14.6632 18.8078C13.9385 20.6757 12.1239 22 10 22C7.23858 22 5 19.7614 5 17C5 15.6373 5.5496 14.3655 6.48922 13.4396L6.66993 13.2701L6.749 13.202L6.75 5.25C6.75 3.57886 8.0113 2.20232 9.63385 2.0204L9.81558 2.00514L10 2Z" fill="#111827"/>
<path d="M10.7506 14.6146C10.8917 14.659 11.0274 14.7155 11.1565 14.783C11.0545 14.9963 11.0006 15.2306 11 15.469C11.001 15.7872 11.0986 16.0976 11.28 16.359C11.4454 16.6439 11.6977 16.8682 12 16.999L12.4949 17.1616C12.4116 18.467 11.3264 19.5 10 19.5C8.61929 19.5 7.5 18.3807 7.5 17C7.5 15.8804 8.23593 14.9328 9.25042 14.6143L9.25 8.75C9.25 8.33579 9.58579 8 10 8C10.4142 8 10.75 8.33579 10.75 8.75L10.7506 14.6146Z" fill="#111827"/>
<path d="M15.0883 17.4123C15.016 17.3189 14.9377 17.2298 14.8539 17.1457C14.5417 16.8326 14.1606 16.5967 13.741 16.4568L12.3632 16.0094C12.257 15.972 12.165 15.9025 12.1 15.8107C12.0349 15.7188 12 15.6091 12 15.4966C12 15.384 12.0349 15.2743 12.1 15.1824C12.165 15.0906 12.257 15.0212 12.3632 14.9837L13.741 14.5363C14.1547 14.3935 14.5299 14.1571 14.837 13.8454C15.1357 13.5422 15.3623 13.1759 15.5 12.7737L15.5114 12.7396L15.9592 11.3629C15.9967 11.2568 16.0662 11.1649 16.1581 11.0999C16.25 11.0349 16.3598 11 16.4724 11C16.5851 11 16.6949 11.0349 16.7868 11.0999C16.8787 11.1649 16.9482 11.2568 16.9857 11.3629L17.4335 12.7396C17.5727 13.1582 17.8077 13.5385 18.1198 13.8504C18.432 14.1623 18.8126 14.3971 19.2315 14.5363L20.6093 14.9837L20.6368 14.9906C20.743 15.028 20.835 15.0975 20.9 15.1893C20.9651 15.2812 21 15.3909 21 15.5034C21 15.616 20.9651 15.7257 20.9 15.8176C20.835 15.9094 20.743 15.9788 20.6368 16.0163L19.259 16.4637C18.8402 16.6029 18.4595 16.8377 18.1474 17.1496C17.8353 17.4615 17.6003 17.8418 17.461 18.2604L17.0132 19.6371C17.0092 19.6486 17.0048 19.6598 17 19.6709C16.9605 19.7627 16.8964 19.8421 16.8144 19.9001C16.7224 19.9651 16.6126 20 16.5 20C16.3874 20 16.2776 19.9651 16.1856 19.9001C16.0937 19.8351 16.0242 19.7432 15.9868 19.6371L15.539 18.2604C15.4378 17.9533 15.2851 17.6666 15.0883 17.4123Z" fill="#111827"/>
<path d="M22.7829 21.2132L22.0175 20.9646C21.7848 20.8873 21.5733 20.7568 21.3999 20.5836C21.2265 20.4103 21.0959 20.199 21.0186 19.9665L20.7698 19.2016C20.749 19.1427 20.7104 19.0916 20.6593 19.0555C20.6083 19.0194 20.5473 19 20.4847 19C20.4221 19 20.3611 19.0194 20.31 19.0555C20.259 19.0916 20.2204 19.1427 20.1996 19.2016L19.9508 19.9665C19.875 20.1974 19.7467 20.4076 19.5761 20.5808C19.4055 20.7539 19.1971 20.8853 18.9672 20.9646L18.2018 21.2132C18.1428 21.234 18.0917 21.2725 18.0555 21.3236C18.0194 21.3746 18 21.4356 18 21.4981C18 21.5606 18.0194 21.6216 18.0555 21.6726C18.0917 21.7236 18.1428 21.7622 18.2018 21.783L18.9672 22.0316C19.2003 22.1093 19.412 22.2403 19.5855 22.4143C19.7589 22.5882 19.8893 22.8003 19.9661 23.0335L20.2149 23.7984C20.2357 23.8573 20.2743 23.9084 20.3254 23.9445C20.3764 23.9806 20.4374 24 20.5 24C20.5626 24 20.6236 23.9806 20.6746 23.9445C20.7257 23.9084 20.7643 23.8573 20.7851 23.7984L21.0339 23.0335C21.1113 22.801 21.2418 22.5897 21.4152 22.4164C21.5886 22.2432 21.8001 22.1127 22.0328 22.0354L22.7982 21.7868C22.8572 21.766 22.9083 21.7275 22.9445 21.6764C22.9806 21.6254 23 21.5644 23 21.5019C23 21.4394 22.9806 21.3784 22.9445 21.3274C22.9083 21.2764 22.8572 21.2378 22.7982 21.217L22.7829 21.2132Z" fill="#111827"/>
</svg>
