<svg width="25" height="24" viewBox="0 0 25 24" fill="none" xmlns="http://www.w3.org/2000/svg">
<path d="M9.25 13.25C9.94036 13.25 10.5 12.6904 10.5 12C10.5 11.3096 9.94036 10.75 9.25 10.75C8.55964 10.75 8 11.3096 8 12C8 12.6904 8.55964 13.25 9.25 13.25Z" fill="#6B7280"/>
<path d="M8.25 2C6.45507 2 5 3.45507 5 5.25V18.75C5 20.5449 6.45507 22 8.25 22H16.75C18.5449 22 20 20.5449 20 18.75V5.25C20 3.45507 18.5449 2 16.75 2H8.25ZM6.5 5.25C6.5 4.2835 7.2835 3.5 8.25 3.5H16.75C17.7165 3.5 18.5 4.2835 18.5 5.25V18.75C18.5 19.7165 17.7165 20.5 16.75 20.5H8.25C7.2835 20.5 6.5 19.7165 6.5 18.75V5.25Z" fill="#6B7280"/>
</svg>
