<svg width="32" height="32" viewBox="0 0 32 32" fill="none" xmlns="http://www.w3.org/2000/svg">
<path d="M17 7C17 6.44772 16.5523 6 16 6C15.4477 6 15 6.44772 15 7V10.7344C15 11.2867 15.4477 11.7344 16 11.7344C16.5523 11.7344 17 11.2867 17 10.7344L17 7Z" fill="#111827"/>
<path d="M16 20.2656C16.5523 20.2656 17 20.7133 17 21.2656L17 25C17 25.5523 16.5523 26 16 26C15.4477 26 15 25.5523 15 25V21.2656C15 20.7133 15.4477 20.2656 16 20.2656Z" fill="#111827"/>
<path d="M16 18.25C17.2426 18.25 18.25 17.2426 18.25 16C18.25 14.7574 17.2426 13.75 16 13.75C14.7574 13.75 13.75 14.7574 13.75 16C13.75 17.2426 14.7574 18.25 16 18.25Z" fill="#111827"/>
<path d="M8.25 18.25C8.80067 18.25 9.30513 18.0522 9.69621 17.7237C9.79487 17.741 9.89638 17.75 10 17.75C10.9665 17.75 11.75 16.9665 11.75 16C11.75 15.0335 10.9665 14.25 10 14.25C9.89638 14.25 9.79487 14.259 9.69621 14.2763C9.30513 13.9478 8.80067 13.75 8.25 13.75C7.00736 13.75 6 14.7574 6 16C6 17.2426 7.00736 18.25 8.25 18.25Z" fill="#111827"/>
<path d="M22.3038 17.7237C22.2051 17.741 22.1036 17.75 22 17.75C21.0335 17.75 20.25 16.9665 20.25 16C20.25 15.0335 21.0335 14.25 22 14.25C22.1036 14.25 22.2051 14.259 22.3038 14.2763C22.6949 13.9478 23.1993 13.75 23.75 13.75C24.9926 13.75 26 14.7574 26 16C26 17.2426 24.9926 18.25 23.75 18.25C23.1993 18.25 22.6949 18.0522 22.3038 17.7237Z" fill="#111827"/>
<path d="M16 2C8.26801 2 2 8.26801 2 16C2 23.732 8.26801 30 16 30C23.732 30 30 23.732 30 16C30 8.26801 23.732 2 16 2ZM4 16C4 9.37258 9.37258 4 16 4C22.6274 4 28 9.37258 28 16C28 22.6274 22.6274 28 16 28C9.37258 28 4 22.6274 4 16Z" fill="#111827"/>
</svg>
