<svg width="48" height="48" viewBox="0 0 48 48" fill="none" xmlns="http://www.w3.org/2000/svg">
<path d="M24 27.5C25.933 27.5 27.5 25.933 27.5 24C27.5 22.067 25.933 20.5 24 20.5C22.067 20.5 20.5 22.067 20.5 24C20.5 25.933 22.067 27.5 24 27.5Z" fill="#111827"/>
<path d="M14.3999 26.94C13.8527 27.2943 13.2004 27.5 12.5 27.5C10.567 27.5 9 25.933 9 24C9 22.067 10.567 20.5 12.5 20.5C13.2004 20.5 13.8527 20.7057 14.3999 21.06C14.5938 21.0207 14.7945 21 15 21C16.6569 21 18 22.3431 18 24C18 25.6569 16.6569 27 15 27C14.7945 27 14.5938 26.9793 14.3999 26.94Z" fill="#111827"/>
<path d="M33.6001 21.06C34.1473 20.7057 34.7996 20.5 35.5 20.5C37.433 20.5 39 22.067 39 24C39 25.933 37.433 27.5 35.5 27.5C34.7996 27.5 34.1473 27.2943 33.6001 26.94C33.4062 26.9793 33.2055 27 33 27C31.3431 27 30 25.6569 30 24C30 22.3431 31.3431 21 33 21C33.2055 21 33.4062 21.0207 33.6001 21.06Z" fill="#111827"/>
<path d="M24 9C24.6904 9 25.25 9.55964 25.25 10.25V16.75C25.25 17.4404 24.6904 18 24 18C23.3096 18 22.75 17.4404 22.75 16.75V10.25C22.75 9.55964 23.3096 9 24 9Z" fill="#111827"/>
<path d="M25.25 31.25C25.25 30.5596 24.6904 30 24 30C23.3096 30 22.75 30.5596 22.75 31.25V37.75C22.75 38.4404 23.3096 39 24 39C24.6904 39 25.25 38.4404 25.25 37.75V31.25Z" fill="#111827"/>
<path d="M24 4C12.9543 4 4 12.9543 4 24C4 35.0457 12.9543 44 24 44C35.0457 44 44 35.0457 44 24C44 12.9543 35.0457 4 24 4ZM6.5 24C6.5 14.335 14.335 6.5 24 6.5C33.665 6.5 41.5 14.335 41.5 24C41.5 33.665 33.665 41.5 24 41.5C14.335 41.5 6.5 33.665 6.5 24Z" fill="#111827"/>
</svg>
