<svg width="24" height="24" viewBox="0 0 24 24" fill="none" xmlns="http://www.w3.org/2000/svg">
<path d="M18 4.25C18 3.00736 16.9926 2 15.75 2H8.25C7.00736 2 6 3.00736 6 4.25V19.75C6 20.9926 7.00736 22 8.25 22H12.8096C12.3832 21.5557 12.0194 21.051 11.7322 20.5H8.25C7.83579 20.5 7.5 20.1642 7.5 19.75V4.25C7.5 3.83579 7.83579 3.5 8.25 3.5H15.75C16.1642 3.5 16.5 3.83579 16.5 4.25V11.0764C16.826 11.0261 17.1599 11 17.5 11C17.6682 11 17.835 11.0064 18 11.0189V4.25Z" fill="#111827"/>
<path d="M10.2488 18.5045C10.2488 18.0902 9.91299 17.7545 9.49878 17.7545C9.08457 17.7545 8.74878 18.0902 8.74878 18.5045C8.74878 18.9187 9.08457 19.2545 9.49878 19.2545C9.91299 19.2545 10.2488 18.9187 10.2488 18.5045Z" fill="#111827"/>
<path d="M14.502 6.24609C14.0877 6.24609 13.752 5.91031 13.752 5.49609C13.752 5.08188 14.0877 4.74609 14.502 4.74609C14.9162 4.74609 15.252 5.08188 15.252 5.49609C15.252 5.91031 14.9162 6.24609 14.502 6.24609Z" fill="#111827"/>
<path d="M11.252 5.49609C11.252 5.91031 11.5877 6.24609 12.002 6.24609C12.4162 6.24609 12.752 5.91031 12.752 5.49609C12.752 5.08188 12.4162 4.74609 12.002 4.74609C11.5877 4.74609 11.252 5.08188 11.252 5.49609Z" fill="#111827"/>
<path d="M9.50195 6.24609C9.08774 6.24609 8.75195 5.91031 8.75195 5.49609C8.75195 5.08188 9.08774 4.74609 9.50195 4.74609C9.91617 4.74609 10.252 5.08188 10.252 5.49609C10.252 5.91031 9.91617 6.24609 9.50195 6.24609Z" fill="#111827"/>
<path d="M17.5 12C14.4624 12 12 14.4624 12 17.5C12 20.5376 14.4624 23 17.5 23C20.5376 23 23 20.5376 23 17.5C23 14.4624 20.5376 12 17.5 12ZM15.4375 17.5C15.4375 17.8797 15.1297 18.1875 14.75 18.1875C14.3703 18.1875 14.0625 17.8797 14.0625 17.5C14.0625 17.1203 14.3703 16.8125 14.75 16.8125C15.1297 16.8125 15.4375 17.1203 15.4375 17.5ZM18.1875 17.5C18.1875 17.8797 17.8797 18.1875 17.5 18.1875C17.1203 18.1875 16.8125 17.8797 16.8125 17.5C16.8125 17.1203 17.1203 16.8125 17.5 16.8125C17.8797 16.8125 18.1875 17.1203 18.1875 17.5ZM20.9375 17.5C20.9375 17.8797 20.6297 18.1875 20.25 18.1875C19.8703 18.1875 19.5625 17.8797 19.5625 17.5C19.5625 17.1203 19.8703 16.8125 20.25 16.8125C20.6297 16.8125 20.9375 17.1203 20.9375 17.5Z" fill="url(#paint0_linear_7483_43952)"/>
<defs>
<linearGradient id="paint0_linear_7483_43952" x1="12" y1="12" x2="24.3568" y2="13.8279" gradientUnits="userSpaceOnUse">
<stop stop-color="#A7E05F"/>
<stop offset="1" stop-color="#12AB97"/>
</linearGradient>
</defs>
</svg>
