<svg width="24" height="24" viewBox="0 0 24 24" fill="none" xmlns="http://www.w3.org/2000/svg">
<path d="M10.5495 2.53189C11.3874 1.82531 12.6126 1.82531 13.4505 2.5319L20.2005 8.224C20.7074 8.65152 21 9.2809 21 9.94406V13.3369C20.5969 12.7645 20.0873 12.2724 19.5 11.8895V9.94406C19.5 9.72301 19.4025 9.51321 19.2335 9.37071L12.4835 3.6786C12.2042 3.44307 11.7958 3.44307 11.5165 3.6786L4.76651 9.37071C4.59752 9.51321 4.5 9.72301 4.5 9.94406V19.7468C4.5 19.8849 4.61193 19.9968 4.75 19.9968H8.25C8.38807 19.9968 8.49999 19.8849 8.49999 19.7468V14.2468C8.49999 13.2803 9.2835 12.4968 10.25 12.4968H12.7284C12.2723 12.9267 11.8897 13.4336 11.6013 13.9968H10.25C10.1119 13.9968 9.99999 14.1088 9.99999 14.2468V19.7468C9.99999 20.7133 9.2165 21.4968 8.25 21.4968H4.75C3.7835 21.4968 3 20.7133 3 19.7468V9.94406C3 9.2809 3.29255 8.65152 3.79952 8.224L10.5495 2.53189Z" fill="#111827"/>
<path d="M16.5 21C17.4719 21 18.3718 20.6919 19.1074 20.1681L21.7197 22.7803C22.0126 23.0732 22.4874 23.0732 22.7803 22.7803C23.0732 22.4874 23.0732 22.0126 22.7803 21.7197L20.1681 19.1074C20.6919 18.3718 21 17.4719 21 16.5C21 14.0147 18.9853 12 16.5 12C14.0147 12 12 14.0147 12 16.5C12 18.9853 14.0147 21 16.5 21ZM16.5 19.5C14.8431 19.5 13.5 18.1569 13.5 16.5C13.5 14.8431 14.8431 13.5 16.5 13.5C18.1569 13.5 19.5 14.8431 19.5 16.5C19.5 18.1569 18.1569 19.5 16.5 19.5Z" fill="#111827"/>
</svg>
