<svg width="24" height="24" viewBox="0 0 24 24" fill="none" xmlns="http://www.w3.org/2000/svg">
<path d="M9.50195 6.24609C9.08774 6.24609 8.75195 5.91031 8.75195 5.49609C8.75195 5.08188 9.08774 4.74609 9.50195 4.74609C9.91617 4.74609 10.252 5.08188 10.252 5.49609C10.252 5.91031 9.91617 6.24609 9.50195 6.24609Z" fill="#111827"/>
<path d="M11.252 5.49609C11.252 5.91031 11.5877 6.24609 12.002 6.24609C12.4162 6.24609 12.752 5.91031 12.752 5.49609C12.752 5.08188 12.4162 4.74609 12.002 4.74609C11.5877 4.74609 11.252 5.08188 11.252 5.49609Z" fill="#111827"/>
<path d="M14.502 6.24609C14.0877 6.24609 13.752 5.91031 13.752 5.49609C13.752 5.08188 14.0877 4.74609 14.502 4.74609C14.9162 4.74609 15.252 5.08188 15.252 5.49609C15.252 5.91031 14.9162 6.24609 14.502 6.24609Z" fill="#111827"/>
<path d="M15.75 2C16.9926 2 18 3.00736 18 4.25V13.75H16.5V9.5L7.5 9.5V14.5L12.4996 14.5C11.9849 14.8867 11.573 15.4028 11.312 16H7.5V19.75C7.5 20.1642 7.83579 20.5 8.25 20.5H12.4996C13.1264 20.9709 13.9056 21.25 14.75 21.25H17.4271C17.0151 21.7103 16.4164 22 15.75 22H8.25C7.00736 22 6 20.9926 6 19.75V4.25C6 3.00736 7.00736 2 8.25 2H15.75ZM15.75 3.5H8.25C7.83579 3.5 7.5 3.83579 7.5 4.25V8L16.5 8V4.25C16.5 3.83579 16.1642 3.5 15.75 3.5Z" fill="#111827"/>
<path d="M10.2488 18.5045C10.2488 18.0902 9.91299 17.7545 9.49878 17.7545C9.08457 17.7545 8.74878 18.0902 8.74878 18.5045C8.74878 18.9187 9.08457 19.2545 9.49878 19.2545C9.91299 19.2545 10.2488 18.9187 10.2488 18.5045Z" fill="#111827"/>
<path d="M23 17.5C23 15.9812 21.7688 14.75 20.25 14.75H14.75C13.2312 14.75 12 15.9812 12 17.5C12 19.0188 13.2312 20.25 14.75 20.25H20.25C21.7688 20.25 23 19.0188 23 17.5ZM20.0634 16.125C20.8499 16.125 21.4875 16.7406 21.4875 17.5C21.4875 18.2594 20.8499 18.875 20.0634 18.875H18.9241C18.1376 18.875 17.5 18.2594 17.5 17.5C17.5 16.7406 18.1376 16.125 18.9241 16.125H20.0634Z" fill="url(#paint0_linear_7483_43935)"/>
<defs>
<linearGradient id="paint0_linear_7483_43935" x1="12" y1="14.75" x2="23.6109" y2="18.1852" gradientUnits="userSpaceOnUse">
<stop stop-color="#F858A2"/>
<stop offset="1" stop-color="#FE585C"/>
</linearGradient>
</defs>
</svg>
