<svg width="25" height="24" viewBox="0 0 25 24" fill="none" xmlns="http://www.w3.org/2000/svg">
<path d="M7.25 4H17.75C19.2125 4 20.4084 5.1417 20.495 6.58248L20.5 6.75L20.5006 10.1037C21.1027 10.2741 21.6209 10.6446 21.9787 11.1387C21.6681 11.0484 21.3397 11 21 11C20.3398 11 19.7228 11.1827 19.1963 11.5H16.8036C16.2772 11.1827 15.6602 11 15 11C14.3402 11 13.723 11.1826 13.1962 11.5H5.25C4.60279 11.5 4.07047 11.9919 4.00645 12.6222L4 12.75V16.5H12.1275C12.2264 16.6419 12.3356 16.7762 12.4539 16.9015L12.7403 17.2051C12.658 17.4616 12.5956 17.7271 12.5551 18H4V20.25C4 20.6297 3.71785 20.9435 3.35177 20.9932L3.25 21C2.8703 21 2.55651 20.7178 2.50685 20.3518L2.5 20.25V12.75C2.5 11.4911 3.34596 10.4297 4.50044 10.1034L4.5 6.75C4.5 5.28747 5.6417 4.0916 7.08248 4.00502L7.25 4ZM17.75 5.5H7.25C6.60279 5.5 6.07047 5.99187 6.00645 6.62219L6 6.75V10H10.5C10.5 9.44772 10.9477 9 11.5 9H13.5C14.0128 9 14.4355 9.38604 14.4933 9.88338L14.5 10H19V6.75C19 6.10279 18.5081 5.57047 17.8778 5.50645L17.75 5.5Z" fill="#6B7280"/>
<path d="M15 12C16.041 12 16.9334 12.6363 17.3095 13.5412C15.5375 13.7538 14.0153 14.7741 13.1812 16.2153C12.7589 15.7676 12.5 15.164 12.5 14.5C12.5 13.1193 13.6193 12 15 12Z" fill="#6B7280"/>
<path d="M21 12C22.3807 12 23.5 13.1193 23.5 14.5C23.5 15.164 23.2411 15.7676 22.8188 16.2153C21.9847 14.7741 20.4625 13.7538 18.6905 13.5412C19.0666 12.6363 19.959 12 21 12Z" fill="#6B7280"/>
<path d="M18 14.5C20.4853 14.5 22.5 16.4028 22.5 18.75C22.5 19.5065 22.2907 20.2169 21.9238 20.8322C21.2301 19.3615 19.7339 18.3438 18 18.3438C16.2661 18.3438 14.7699 19.3615 14.0762 20.8323C13.7093 20.2169 13.5 19.5065 13.5 18.75C13.5 16.4028 15.5147 14.5 18 14.5Z" fill="#6B7280"/>
<path d="M21.2009 21.7372C20.8859 20.6656 20.0474 19.818 18.9813 19.4904C18.8305 19.829 18.448 20.0695 18 20.0695C17.552 20.0695 17.1695 19.829 17.0187 19.4904C15.9531 19.8125 15.1486 20.5483 14.7991 21.7372C15.6149 22.5169 16.7477 23 18 23C19.2523 23 20.3851 22.5169 21.2009 21.7372Z" fill="#6B7280"/>
</svg>
