<svg width="25" height="24" viewBox="0 0 25 24" fill="none" xmlns="http://www.w3.org/2000/svg">
<path d="M5.25 11H15C13.067 11 11.5 12.567 11.5 14.5C11.5 15.4292 11.8634 16.2756 12.4539 16.9015L12.7403 17.2051C12.658 17.4616 12.5956 17.7271 12.5551 18H4V20.25C4 20.6297 3.71785 20.9435 3.35177 20.9932L3.25 21C2.8703 21 2.55651 20.7178 2.50685 20.3518L2.5 20.25V13.75C2.5 12.2875 3.6417 11.0916 5.08248 11.005L5.25 11Z" fill="#1470CC"/>
<path d="M7.25 4H17.75C19.2125 4 20.4084 5.1417 20.495 6.58248L20.5 6.75V10H14.5067L14.5 9.88338C14.4467 9.4243 14.0824 9.06005 13.6233 9.00673L13.5067 9H11.5067C10.9939 9 10.5712 9.38604 10.5135 9.88338L10.5067 10H4.5V6.75C4.5 5.28747 5.6417 4.0916 7.08248 4.00502L7.25 4Z" fill="#1470CC"/>
<path d="M15 12C16.041 12 16.9334 12.6363 17.3095 13.5412C15.5375 13.7538 14.0153 14.7741 13.1812 16.2153C12.7589 15.7676 12.5 15.164 12.5 14.5C12.5 13.1193 13.6193 12 15 12Z" fill="#1470CC"/>
<path d="M21 12C22.3807 12 23.5 13.1193 23.5 14.5C23.5 15.164 23.2411 15.7676 22.8188 16.2153C21.9847 14.7741 20.4625 13.7538 18.6905 13.5412C19.0666 12.6363 19.959 12 21 12Z" fill="#1470CC"/>
<path d="M18 14.5C20.4853 14.5 22.5 16.4028 22.5 18.75C22.5 19.5065 22.2907 20.2169 21.9238 20.8322C21.2301 19.3615 19.7339 18.3438 18 18.3438C16.2661 18.3438 14.7699 19.3615 14.0762 20.8323C13.7093 20.2169 13.5 19.5065 13.5 18.75C13.5 16.4028 15.5147 14.5 18 14.5Z" fill="#1470CC"/>
<path d="M21.2009 21.7372C20.8859 20.6656 20.0474 19.818 18.9813 19.4904C18.8305 19.829 18.448 20.0695 18 20.0695C17.552 20.0695 17.1695 19.829 17.0187 19.4904C15.9531 19.8125 15.1486 20.5483 14.7991 21.7372C15.6149 22.5169 16.7477 23 18 23C19.2523 23 20.3851 22.5169 21.2009 21.7372Z" fill="#1470CC"/>
</svg>
