<svg width="25" height="24" viewBox="0 0 25 24" fill="none" xmlns="http://www.w3.org/2000/svg">
<path d="M17.25 4H7.75C6.23122 4 5 5.23122 5 6.75V8C6.76324 8 8.22194 9.30385 8.46456 11H16.5354C16.7781 9.30385 18.2368 8 20 8V6.75C20 5.23122 18.7688 4 17.25 4ZM17.5 11.5C17.5 10.1193 18.6193 9 20 9C21.3807 9 22.5 10.1193 22.5 11.5V14.25C22.5 15.6845 21.4016 16.8625 20 16.9888V18.25C20 18.6642 19.6642 19 19.25 19C18.8358 19 18.5 18.6642 18.5 18.25V17H6.5V18.25C6.5 18.6642 6.16421 19 5.75 19C5.33579 19 5 18.6642 5 18.25V16.9888C3.59837 16.8625 2.5 15.6845 2.5 14.25V11.5C2.5 10.1193 3.61929 9 5 9C6.38071 9 7.5 10.1193 7.5 11.5C7.5 11.7761 7.72386 12 8 12H17C17.2761 12 17.5 11.7761 17.5 11.5Z" fill="#1470CC"/>
</svg>
