<svg width="25" height="24" viewBox="0 0 25 24" fill="none" xmlns="http://www.w3.org/2000/svg">
<path d="M7.75 4C6.23122 4 5 5.23122 5 6.75V8.08697C3.56665 8.42555 2.5 9.71321 2.5 11.25V14.25C2.5 15.6845 3.59837 16.8625 5 16.9888V18.25C5 18.6642 5.33579 19 5.75 19C6.16421 19 6.5 18.6642 6.5 18.25V17H18.5V18.25C18.5 18.6642 18.8358 19 19.25 19C19.6642 19 20 18.6642 20 18.25V16.9888C21.4016 16.8625 22.5 15.6845 22.5 14.25V11.25C22.5 9.71321 21.4333 8.42555 20 8.08697V6.75C20 5.23122 18.7688 4 17.25 4H7.75ZM19.75 15.5H5.25C4.55964 15.5 4 14.9404 4 14.25V11.25C4 10.2835 4.7835 9.5 5.75 9.5C6.7165 9.5 7.5 10.2835 7.5 11.25V11.75C7.5 12.1642 7.83579 12.5 8.25 12.5H16.75C17.1642 12.5 17.5 12.1642 17.5 11.75V11.25C17.5 10.2835 18.2835 9.5 19.25 9.5C20.2165 9.5 21 10.2835 21 11.25V14.25C21 14.9404 20.4404 15.5 19.75 15.5ZM18.5 8.08697C17.1451 8.40702 16.1179 9.57509 16.0095 11H8.99053C8.88213 9.57509 7.85489 8.40702 6.5 8.08697V6.75C6.5 6.05964 7.05964 5.5 7.75 5.5H17.25C17.9404 5.5 18.5 6.05964 18.5 6.75V8.08697Z" fill="#6B7280"/>
</svg>
