<svg width="20" height="20" viewBox="0 0 20 20" fill="none" xmlns="http://www.w3.org/2000/svg">
<path d="M8.9975 2.38811C9.56767 1.87584 10.4323 1.87584 11.0025 2.38811L16.5025 7.32965C16.8191 7.61414 17 8.01977 17 8.44544V9.59971C16.6832 9.43777 16.3486 9.30564 16 9.20703V8.44544C16 8.30355 15.9397 8.16834 15.8342 8.07351L10.3342 3.13198C10.1441 2.96122 9.85589 2.96122 9.66583 3.13197L4.16583 8.07351C4.06029 8.16834 4 8.30355 4 8.44544V15.4996C4 15.7757 4.22386 15.9996 4.5 15.9996H7C7.27614 15.9996 7.5 15.7757 7.5 15.4996V11.9996C7.5 11.1711 8.17157 10.4996 9 10.4996H10.7255C10.4092 10.7981 10.1283 11.1338 9.88975 11.4996H9C8.72386 11.4996 8.5 11.7234 8.5 11.9996V15.4996C8.5 16.328 7.82843 16.9996 7 16.9996H4.5C3.67157 16.9996 3 16.328 3 15.4996V8.44544C3 8.01977 3.18086 7.61414 3.4975 7.32965L8.9975 2.38811Z" fill="#1470CC"/>
<path d="M12.0654 11.4421C12.3686 12.5232 11.7226 13.6421 10.6347 13.92L10.1737 14.0378C10.1587 14.1898 10.151 14.3439 10.151 14.5C10.151 14.6876 10.1621 14.8726 10.1837 15.0542L10.5332 15.1369C11.6527 15.4016 12.3186 16.5537 11.9893 17.6558L11.863 18.0786C12.1201 18.2819 12.3999 18.4561 12.6976 18.5965L13.0226 18.2524C13.8124 17.4161 15.1432 17.4168 15.9321 18.2539L16.2695 18.6119C16.5619 18.477 16.8373 18.3096 17.0913 18.1143L16.9352 17.5576C16.6319 16.4765 17.2779 15.3576 18.3658 15.0797L18.8264 14.962C18.8414 14.8101 18.849 14.656 18.849 14.5C18.849 14.3122 18.8379 14.1271 18.8163 13.9454L18.4673 13.8628C17.3479 13.5982 16.6819 12.446 17.0112 11.3439L17.1374 10.9216C16.8802 10.7183 16.6004 10.544 16.3026 10.4035L15.9779 10.7473C15.1881 11.5836 13.8574 11.5829 13.0684 10.7458L12.7311 10.3878C12.4386 10.5227 12.1633 10.69 11.9092 10.8853L12.0654 11.4421ZM14.5 15.5C13.9477 15.5 13.5 15.0523 13.5 14.5C13.5 13.9477 13.9477 13.5 14.5 13.5C15.0523 13.5 15.5 13.9477 15.5 14.5C15.5 15.0523 15.0523 15.5 14.5 15.5Z" fill="#1470CC"/>
</svg>
