<svg width="24" height="24" viewBox="0 0 24 24" fill="none" xmlns="http://www.w3.org/2000/svg">
<path d="M10.8214 2.00312L10.9218 2.01982L19.4218 4.01982C19.7267 4.09156 19.9511 4.34361 19.993 4.64702L20 4.74988V11.4981C19.5258 11.3003 19.0232 11.1571 18.5 11.0763V5.34389L11.5 3.69683V14.9953L11.4938 15.0103V19.9895L11.5 20.0044V21.8439L10.9218 21.9799C10.4846 22.0828 10.0645 21.7822 10.0067 21.3515L10 21.2499V2.74988C10 2.33534 10.3313 2.01368 10.7225 2L10.8214 2.00312Z" fill="#111827"/>
<path d="M9 5.49988H5.5V18.4999H9V19.9999H4.75C4.3703 19.9999 4.05651 19.7177 4.00685 19.3517L4 19.2499V4.74988C4 4.37019 4.28215 4.05639 4.64823 4.00673L4.75 3.99988H9V5.49988Z" fill="#111827"/>
<path d="M23 17.5C23 20.5376 20.5376 23 17.5 23C14.4624 23 12 20.5376 12 17.5C12 14.4624 14.4624 12 17.5 12C20.5376 12 23 14.4624 23 17.5ZM13.5 17.5C13.5 19.7091 15.2909 21.5 17.5 21.5C19.7091 21.5 21.5 19.7091 21.5 17.5C21.5 15.2909 19.7091 13.5 17.5 13.5C15.2909 13.5 13.5 15.2909 13.5 17.5Z" fill="#111827"/>
</svg>
