<svg width="24" height="24" viewBox="0 0 24 24" fill="none" xmlns="http://www.w3.org/2000/svg">
<path d="M3.675 2H20.325C20.6978 2 21 2.33579 21 2.75C21 3.16421 20.6978 3.5 20.325 3.5H3.675C3.30221 3.5 3 3.16421 3 2.75C3 2.33579 3.30221 2 3.675 2Z" fill="#111827"/>
<path d="M3 7.25V19.75C3 20.9926 4.00736 22 5.25 22H18.75C19.9926 22 21 20.9926 21 19.75V7.25C21 6.00736 19.9926 5 18.75 5H5.25C4.00736 5 3 6.00736 3 7.25ZM5.25 6.5H11.25V20.5H5.25C4.83579 20.5 4.5 20.1642 4.5 19.75V7.25C4.5 6.83579 4.83579 6.5 5.25 6.5ZM18.75 20.5H12.75V6.5H18.75C19.1642 6.5 19.5 6.83579 19.5 7.25V19.75C19.5 20.1642 19.1642 20.5 18.75 20.5Z" fill="#111827"/>
</svg>
