<svg width="32" height="32" viewBox="0 0 32 32" fill="none" xmlns="http://www.w3.org/2000/svg">
<path d="M27 4C27.5523 4 28 3.55228 28 3C28 2.44772 27.5523 2 27 2H5C4.44772 2 4 2.44772 4 3C4 3.55228 4.44772 4 5 4H27Z" fill="#111827"/>
<path d="M4 9.57812C4 7.7832 5.45507 6.32812 7.25 6.32812H24.75C26.5449 6.32812 28 7.7832 28 9.57812V26.75C28 28.5449 26.5449 30 24.75 30H7.25C5.45508 30 4 28.5449 4 26.75V9.57812ZM7.25 8.32812C6.55964 8.32812 6 8.88777 6 9.57812V26.75C6 27.4404 6.55964 28 7.25 28H15L15 8.32812H7.25ZM24.75 28C25.4404 28 26 27.4404 26 26.75V9.57812C26 8.88777 25.4404 8.32812 24.75 8.32812H17L17 28H24.75Z" fill="#111827"/>
</svg>
