<svg width="24" height="24" viewBox="0 0 24 24" fill="none" xmlns="http://www.w3.org/2000/svg">
<path d="M4 5.25C4 4.55964 4.55964 4 5.25 4H7.25C7.94036 4 8.5 4.55964 8.5 5.25V5.83604C10.3958 5.9556 12.1206 6.52486 13.4147 7.41162C13.7564 7.64575 13.8436 8.11255 13.6095 8.45425C13.3754 8.79594 12.9086 8.88314 12.5669 8.649C11.5446 7.94853 10.1227 7.45664 8.5 7.33941V11H19.75C20.9926 11 22 12.0074 22 13.25V13.75C22 17.2018 19.2018 20 15.75 20H4.25C3.00736 20 2 18.9926 2 17.75V13.25C2 12.0919 2.87501 11.1381 4 11.0137V5.25Z" fill="#1470CC"/>
</svg>
